<svg width="118" height="62" viewBox="0 0 118 62" fill="none" xmlns="http://www.w3.org/2000/svg">
    <g id="&#208;&#155;&#208;&#190;&#208;&#179;&#208;&#190;&#209;&#130;&#208;&#184;&#208;&#191;">
        <path id="Vector"
            d="M9.74547 52.4366C7.62961 52.4366 5.04031 52.0529 2.49814 50.6954C1.80706 50.3274 0.187072 49.2572 0.0143031 47.2872C-0.122566 45.712 0.72333 44.1953 2.5318 42.7772C2.7113 42.6358 2.77188 42.297 2.86611 41.2806C2.95138 40.3854 3.05459 39.268 3.47417 37.9599C3.89375 36.6518 4.3268 35.301 5.42175 33.957C7.98412 30.818 11.9466 30.4074 13.0999 30.3558C16.1379 30.2167 18.7923 31.1209 20.7668 32.9608C24.211 36.1693 24.4667 41.0787 23.19 44.5228C21.3277 49.5533 16.4947 51.1217 14.4304 51.7904C14.2936 51.8352 12.3909 52.4366 9.74547 52.4366ZM3.95209 46.9304C4.02389 47.0134 4.17198 47.1368 4.34923 47.2311C8.56525 49.4838 13.1829 48.068 13.23 48.0523C14.8724 47.5183 18.3076 46.4054 19.5103 43.1586C20.3068 41.0091 20.2036 37.7983 18.0922 35.8328C16.9053 34.7266 15.2382 34.1904 13.2749 34.2756C12.7476 34.2981 10.0372 34.5134 8.46653 36.4363C7.84052 37.2037 7.578 38.0227 7.21451 39.1558C6.92507 40.0578 6.84878 40.8633 6.77698 41.6419C6.6446 43.0554 6.49427 44.6575 4.95505 45.8624C4.24602 46.4211 4.0194 46.7868 3.95209 46.9304Z"
            fill="url(#paint0_linear_66_65)" />
        <g id="Group">
            <path id="Vector_2"
                d="M23.9896 24.8989V26.4942H22.1475C22.7645 26.059 23.4017 25.5294 23.9896 24.8989Z"
                fill="#F1F1F1" />
            <path id="Vector_3"
                d="M36.891 15.9329V26.4943H32.1342V16.4692C32.1342 14.9793 31.7999 13.8507 31.156 13.1125C30.512 12.3743 29.5988 12.0153 28.3804 12.0153C27.0364 12.0153 25.9953 12.4371 25.1943 13.3212C24.3933 14.185 23.9894 15.4662 23.9894 17.1131V23.3328C22.6903 24.8788 21.1757 25.8615 19.8946 26.4943H19.2326V16.4692C19.2326 14.9793 18.8983 13.8507 18.2544 13.1125C17.6104 12.3743 16.6972 12.0153 15.4788 12.0153C14.1102 12.0153 13.0623 12.4371 12.2748 13.3032C11.4872 14.1603 11.0878 15.4415 11.0878 17.1131V26.4943H6.33105V7.99676H10.8859V9.84561C11.4917 9.25999 12.2052 8.79778 13.013 8.45224C14.0541 8.01695 15.2208 7.79706 16.4885 7.79706C17.864 7.79706 19.1137 8.05509 20.1795 8.58013C21.1511 9.04683 21.9521 9.7222 22.5579 10.5995C23.2826 9.76035 24.1981 9.09844 25.2706 8.60706C26.4688 8.0708 27.806 7.7993 29.251 7.7993C31.58 7.7993 33.4536 8.4859 34.8223 9.84337C35.5089 10.5255 36.0272 11.3759 36.3682 12.3923C36.7137 13.4109 36.891 14.5889 36.891 15.9329Z"
                fill="#F1F1F1" />
        </g>
        <g id="Group_2">
            <path id="Vector_4"
                d="M79.21 15.9352V26.4965H74.451V16.4737C74.451 14.9838 74.0987 13.8597 73.4144 13.1192C72.7323 12.3855 71.7405 12.0153 70.4639 12.0153C69.0032 12.0153 67.8386 12.4529 67.004 13.3257C66.1648 14.194 65.7385 15.4819 65.7385 17.1445V26.4943H60.9795V7.99451H65.5366V9.8815C66.1648 9.27569 66.9142 8.79553 67.7713 8.45448C68.8528 8.01246 70.0847 7.79482 71.4399 7.79482C73.7644 7.79482 75.6626 8.48813 77.0717 9.85458C77.783 10.5434 78.3147 11.3938 78.6737 12.408C79.0305 13.4266 79.21 14.6024 79.21 15.9352Z"
                fill="#F1F1F1" />
        </g>
        <g id="Group_3">
            <path id="Vector_5"
                d="M110.593 2.69924C110.593 3.51148 110.312 4.2048 109.758 4.75901C109.197 5.31995 108.482 5.59817 107.624 5.59817C106.797 5.59817 106.085 5.32892 105.52 4.79715C104.948 4.26538 104.658 3.59225 104.658 2.79796C104.658 2.00367 104.95 1.33055 105.52 0.794291C106.085 0.267009 106.797 0 107.624 0C108.452 0 109.159 0.258035 109.729 0.760636C110.301 1.26997 110.593 1.92514 110.593 2.69924Z"
                fill="#F1F1F1" />
            <path id="Vector_6" d="M109.988 7.99449H105.229V26.4942H109.988V7.99449Z" fill="#F1F1F1" />
        </g>
        <g id="Group_4">
            <path id="Vector_7"
                d="M118 23.4764C118 24.356 117.704 25.0942 117.11 25.6776C116.522 26.2542 115.799 26.5459 114.965 26.5459C114.13 26.5459 113.407 26.2542 112.819 25.6776C112.232 25.0942 111.929 24.356 111.929 23.4764C111.929 22.5744 112.225 21.825 112.802 21.2596C113.385 20.6942 114.105 20.4092 114.962 20.4092C115.819 20.4092 116.546 20.6942 117.123 21.2596C117.711 21.8295 118 22.5744 118 23.4764Z"
                fill="#F1F1F1" />
        </g>
        <g id="Group_5">
            <path id="Vector_8"
                d="M36.9933 32.5479V37.1611L36.6635 37.1005C36.3224 37.0399 36.015 37.0063 35.739 37.0063C34.1931 37.0063 32.9725 37.4595 32.1109 38.3503C31.2493 39.241 30.8117 40.5626 30.8117 42.2701V51.2519H26.0527V32.7521H30.6098V34.8119C31.9246 33.3108 33.9687 32.5502 36.7128 32.5502H36.9933V32.5479Z"
                fill="#F1F1F1" />
        </g>
        <path id="Vector_9"
            d="M25.6043 20.7592L25.4787 21.1003C25.4226 21.2147 25.353 21.3404 25.2767 21.4862C25.0501 21.8901 24.7225 22.4129 24.2917 22.9693C24.1975 23.095 24.0965 23.2161 23.9888 23.3351C22.6897 24.881 21.1752 25.8638 19.894 26.4965C18.9045 26.9946 18.0518 27.2728 17.5537 27.4299C16.9928 27.6139 16.2344 27.8158 15.301 27.9594C14.9285 28.0155 14.5314 28.0671 14.1096 28.0985C14.7154 27.0328 15.485 25.8772 16.4879 24.7352C16.8851 24.2685 17.3338 23.795 17.8185 23.3351C18.1663 23.0007 18.5185 22.6911 18.8663 22.4084C17.9262 22.6552 16.0347 23.2969 14.4573 25.0268C14.3878 25.1031 14.325 25.1772 14.2621 25.2535C13.7124 25.9042 13.3355 26.5414 13.0752 27.0821C13.1133 26.5526 13.4162 23.1578 16.2725 21.0823C17.2374 20.3823 18.2605 20.0098 19.2321 19.8213C21.1684 19.4489 22.8916 19.8527 23.4974 19.9986C23.668 20.0367 23.8318 20.0816 23.9888 20.1242C24.6642 20.3172 25.2072 20.5573 25.6043 20.7592Z"
            fill="url(#paint1_linear_66_65)" />
        <path id="Vector_10"
            d="M102.251 7.84641L91.4944 7.82846H91.4697C89.6209 7.82846 87.9313 8.23907 86.4415 9.04009C84.9471 9.84784 83.7535 10.9764 82.9143 12.3967C82.0751 13.8283 81.6533 15.4684 81.6533 17.2792C81.6533 19.0966 82.0751 20.7435 82.9143 22.175C83.7535 23.6133 84.9404 24.7486 86.4415 25.5564C87.9313 26.3574 89.6209 26.768 91.4697 26.768C93.35 26.768 95.053 26.3574 96.5474 25.5564C98.0417 24.7486 99.2219 23.6133 100.061 22.175C100.9 20.7368 101.329 19.0899 101.329 17.2792C101.329 15.4684 100.9 13.8283 100.061 12.3967C100.03 12.3474 100.005 12.2958 99.9668 12.2509H102.251V7.84641ZM96.1749 19.4489C95.9348 20.0996 95.5758 20.6672 95.1024 21.1519C94.1555 22.1167 92.9327 22.6081 91.4697 22.6081C90.018 22.6081 88.7952 22.1167 87.8618 21.1519C86.9217 20.1803 86.4415 18.8745 86.4415 17.2792C86.4415 15.6838 86.9217 14.378 87.8618 13.4109C88.8019 12.4394 90.0203 11.948 91.4697 11.948C92.9327 11.948 94.1578 12.4394 95.1024 13.4109C96.0493 14.3757 96.5339 15.6816 96.5339 17.2792C96.5339 18.0802 96.4082 18.8049 96.1749 19.4489Z"
            fill="#F1F1F1" />
        <g id="Group_6">
            <path id="Vector_11"
                d="M58.4983 16.0855C58.3973 14.5799 57.9822 13.2067 57.2665 11.9861C56.4273 10.5636 55.2448 9.43275 53.7505 8.62724C52.2606 7.82622 50.5531 7.41786 48.6774 7.41786C46.824 7.41786 45.1322 7.82622 43.6446 8.62724C42.1503 9.43275 40.9633 10.5636 40.1219 11.9861C39.2828 13.4132 38.8564 15.0556 38.8564 16.8686C38.8564 18.6838 39.2828 20.3284 40.1219 21.7622C40.9611 23.2004 42.1435 24.338 43.6446 25.1435C45.1345 25.9445 46.824 26.3529 48.6774 26.3529C50.5531 26.3529 52.2606 25.9445 53.7505 25.1435C53.8739 25.0762 53.9973 25.0089 54.114 24.9304V26.492H58.5095L58.5319 16.9224V16.8169C58.5319 16.5746 58.5207 16.3278 58.4983 16.0855ZM53.3803 19.0383C53.1402 19.6867 52.7812 20.2589 52.3055 20.7413C51.3587 21.7106 50.1381 22.202 48.6774 22.202C47.2212 22.202 46.0006 21.7083 45.0649 20.7413C44.1248 19.772 43.6491 18.4684 43.6491 16.873C43.6491 15.2777 44.1248 13.9719 45.0649 13.0048C46.0051 12.0355 47.2212 11.5441 48.6774 11.5441C50.1381 11.5441 51.3587 12.0378 52.3055 13.0048C53.2569 13.9741 53.7393 15.2777 53.7393 16.873C53.737 17.6718 53.6159 18.3943 53.3803 19.0383Z"
                fill="#F1F1F1" />
        </g>
        <path id="Vector_12"
            d="M58.6455 32.3796L47.889 32.3617H47.8643C46.0154 32.3617 44.3259 32.7723 42.836 33.5733C41.3417 34.3811 40.148 35.5097 39.3088 36.93C38.4697 38.3615 38.0479 40.0017 38.0479 41.8124C38.0479 43.6298 38.4697 45.2767 39.3088 46.7083C40.148 48.1465 41.335 49.2818 42.836 50.0896C44.3259 50.8906 46.0154 51.3012 47.8643 51.3012C49.7445 51.3012 51.4476 50.8906 52.9419 50.0896C54.4362 49.2818 55.6165 48.1465 56.4556 46.7083C57.2948 45.27 57.7233 43.6231 57.7233 41.8124C57.7233 40.0017 57.2948 38.3615 56.4556 36.93C56.4242 36.8806 56.3995 36.829 56.3614 36.7841H58.6455V32.3796ZM52.5694 43.9821C52.3294 44.6328 51.9704 45.2004 51.4969 45.6851C50.5501 46.6499 49.3272 47.1413 47.8643 47.1413C46.4126 47.1413 45.1897 46.6499 44.2563 45.6851C43.3162 44.7136 42.836 43.4077 42.836 41.8124C42.836 40.2171 43.3162 38.9112 44.2563 37.9441C45.1965 36.9726 46.4148 36.4812 47.8643 36.4812C49.3272 36.4812 50.5523 36.9726 51.4969 37.9441C52.4438 38.909 52.9284 40.2148 52.9284 41.8124C52.9284 42.6134 52.8028 43.3381 52.5694 43.9821Z"
            fill="#F1F1F1" />
        <path id="Vector_13"
            d="M58.1454 58.5418C57.2143 59.3114 56.1036 59.9554 54.8224 60.467C52.7986 61.268 50.492 61.6786 47.9453 61.6786C45.4413 61.6786 43.1527 61.268 41.1355 60.467C39.9912 60.0137 38.9815 59.4573 38.1289 58.7954L41.1131 55.4387C41.3105 55.6586 44.2678 57.5209 47.9453 57.5209C51.8382 57.5209 54.8045 55.6922 54.9907 55.4903L58.1454 58.5418Z"
            fill="#F1F1F1" />
        <path id="Vector_14"
            d="M101.959 33.8717C101.028 34.6413 99.9171 35.2853 98.6359 35.7969C96.6121 36.5979 94.3055 37.0085 91.7588 37.0085C89.2548 37.0085 86.9662 36.5979 84.949 35.7969C83.8047 35.3436 82.795 34.7872 81.9424 34.1253L84.9266 30.7686C85.124 30.9885 88.0813 32.8508 91.7588 32.8508C95.6517 32.8508 98.618 31.0222 98.8042 30.8202L101.959 33.8717Z"
            fill="#F1F1F1" />
        <g id="Group_7">
            <path id="Vector_15"
                d="M69.447 49.0776C69.8845 49.2841 70.1044 49.6251 70.1044 50.1008C70.1044 50.48 69.9743 50.7851 69.7185 51.0162C69.4605 51.2473 69.1037 51.364 68.6482 51.364H66.373V46.9191H68.471C68.922 46.9191 69.2742 47.0313 69.53 47.2557C69.7836 47.4823 69.9115 47.7785 69.9115 48.1442C69.9092 48.5638 69.7544 48.8757 69.447 49.0776ZM68.3992 47.7359H67.2885V48.7231H68.3992C68.7896 48.7231 68.9848 48.5571 68.9848 48.225C68.9848 47.8974 68.7896 47.7359 68.3992 47.7359ZM67.2885 50.5271H68.5585C68.9624 50.5271 69.1643 50.3521 69.1643 50.0021C69.1643 49.8472 69.1104 49.7283 69.005 49.6408C68.8995 49.5556 68.7514 49.5129 68.5607 49.5129H67.2907V50.5271H67.2885Z"
                fill="#F1F1F1" />
            <path id="Vector_16"
                d="M74.9574 49.5488H71.419C71.4908 49.8809 71.6523 50.1389 71.9036 50.3229C72.1549 50.5069 72.4691 50.5989 72.8415 50.5989C73.3441 50.5989 73.7278 50.4149 73.9881 50.0469L74.7779 50.5091C74.3448 51.1553 73.6964 51.4785 72.8325 51.4785C72.1145 51.4785 71.5312 51.2586 71.0824 50.821C70.6382 50.3768 70.416 49.8158 70.416 49.1405C70.416 48.483 70.6359 47.9288 71.0734 47.4778C71.5065 47.0268 72.0697 46.8025 72.763 46.8025C73.4092 46.8025 73.9432 47.0313 74.3628 47.4868C74.7824 47.9423 74.9933 48.4965 74.9933 49.1494C74.9933 49.2661 74.9821 49.4007 74.9574 49.5488ZM71.4122 48.7657H74.0262C73.9612 48.4157 73.8131 48.1465 73.5864 47.958C73.3576 47.7673 73.0816 47.673 72.7563 47.673C72.3995 47.673 72.1033 47.7695 71.8677 47.967C71.6277 48.1622 71.4773 48.4292 71.4122 48.7657Z"
                fill="#F1F1F1" />
            <path id="Vector_17"
                d="M77.6499 51.4785C76.9746 51.4785 76.4181 51.2586 75.9783 50.821C75.552 50.3768 75.3389 49.8113 75.3389 49.1225C75.3389 48.3753 75.4511 47.7964 75.6777 47.3791C75.8976 46.9707 76.353 46.5938 77.0464 46.2505C77.071 46.2393 77.1092 46.2191 77.1675 46.1922C77.2236 46.1652 77.2842 46.1361 77.3493 46.1069C77.4143 46.0777 77.4794 46.0486 77.5445 46.0171C77.7935 45.905 77.9484 45.8332 78.0067 45.804C78.0426 45.786 78.1458 45.721 78.3186 45.6088C78.525 45.4607 78.6664 45.2498 78.7359 44.9783L79.519 45.4315C79.4898 45.7569 79.2856 46.0575 78.9064 46.329C78.8414 46.3874 78.7202 46.4592 78.543 46.5422L78.1615 46.7194L77.7172 46.9057C77.3313 47.0605 77.0486 47.2176 76.8646 47.3769C76.6806 47.5362 76.5527 47.7404 76.4832 47.9894C76.8399 47.5878 77.3223 47.3858 77.9326 47.3858C78.4532 47.3858 78.9064 47.5721 79.2924 47.9468C79.6828 48.3192 79.878 48.8039 79.878 49.3962C79.878 49.9998 79.6716 50.4979 79.2565 50.8883C78.8414 51.281 78.3096 51.4785 77.6499 51.4785ZM77.6432 50.5787C78.0157 50.5787 78.3208 50.4688 78.5587 50.2444C78.7965 50.0223 78.9132 49.7395 78.9132 49.3962C78.9132 49.0462 78.7965 48.759 78.5631 48.5346C78.3298 48.3103 78.0246 48.1958 77.6522 48.1958C77.3201 48.1958 77.0217 48.3013 76.7547 48.5167C76.4877 48.7186 76.3553 48.9969 76.3553 49.3514C76.3553 49.7081 76.4787 49.9998 76.73 50.2309C76.9768 50.4643 77.2797 50.5787 77.6432 50.5787Z"
                fill="#F1F1F1" />
            <path id="Vector_18" d="M83.7581 49.1225H80.4688V48.1981H83.7581V49.1225Z"
                fill="#F1F1F1" />
            <path id="Vector_19"
                d="M86.8157 51.4785C86.1448 51.4785 85.5861 51.2541 85.1351 50.8031C84.6909 50.3476 84.4688 49.7934 84.4688 49.1405C84.4688 48.4763 84.6909 47.9221 85.1351 47.4778C85.5861 47.0268 86.1448 46.8025 86.8157 46.8025C87.2488 46.8025 87.6414 46.9057 87.9982 47.1143C88.3527 47.3208 88.6197 47.599 88.7992 47.949L87.9712 48.4292C87.8703 48.216 87.7177 48.0477 87.5135 47.9266C87.3093 47.8054 87.0737 47.7448 86.8067 47.7448C86.4163 47.7448 86.0865 47.8795 85.8195 48.1442C85.5592 48.4157 85.4291 48.7478 85.4291 49.1405C85.4291 49.5331 85.5592 49.863 85.8195 50.1367C86.0865 50.4037 86.4141 50.5361 86.8067 50.5361C87.067 50.5361 87.3026 50.4755 87.5135 50.3543C87.7244 50.2332 87.8815 50.0649 87.9892 49.8517L88.8149 50.3229C88.6264 50.6797 88.3505 50.9601 87.9937 51.1666C87.6347 51.373 87.242 51.4785 86.8157 51.4785Z"
                fill="#F1F1F1" />
            <path id="Vector_20"
                d="M88.7698 46.9169H92.6358V47.8413H91.1864V51.3618H90.226V47.8413H88.7676V46.9169H88.7698Z"
                fill="#F1F1F1" />
            <path id="Vector_21"
                d="M94.9674 50.1524L96.1049 46.9169H97.1258L95.4206 51.5031C95.2119 52.0663 94.9225 52.4859 94.55 52.7641C94.1776 53.0423 93.7445 53.168 93.2531 53.1366V52.2391C93.823 52.275 94.2157 51.99 94.4356 51.3864L94.4625 51.3236L92.5957 46.9146H93.6189L94.9674 50.1524Z"
                fill="#F1F1F1" />
            <path id="Vector_22"
                d="M101.153 46.9169V50.4553H101.747V52.5532H100.805V51.3618H97.7558V52.5532H96.8135V50.4553H97.3565C97.628 50.0761 97.7648 49.5398 97.7648 48.8465V46.9169H101.153ZM98.4155 50.4553H100.211V47.7987H98.7072V48.8465C98.7072 49.486 98.6107 50.0222 98.4155 50.4553Z"
                fill="#F1F1F1" />
            <path id="Vector_23"
                d="M103.251 49.735L105.526 46.9169H106.264V51.3618H105.322V48.5346L103.047 51.3618H102.309V46.9169H103.251V49.735Z"
                fill="#F1F1F1" />
            <path id="Vector_24"
                d="M108.612 46.9169H110.593V51.3618H109.651V49.8674H109.117L107.988 51.3618H106.859L108.06 49.7799C107.752 49.679 107.503 49.5017 107.317 49.2459C107.131 48.9924 107.037 48.7074 107.037 48.3933C107.037 47.9849 107.182 47.6371 107.472 47.3522C107.764 47.0627 108.143 46.9169 108.612 46.9169ZM108.663 49.0417H109.651V47.7875H108.663C108.461 47.7875 108.298 47.8458 108.17 47.9602C108.042 48.0747 107.979 48.2295 107.979 48.418C107.979 48.6064 108.042 48.759 108.17 48.8712C108.298 48.9856 108.464 49.0417 108.663 49.0417Z"
                fill="#F1F1F1" />
        </g>
    </g>
    <defs>
        <linearGradient id="paint0_linear_66_65" x1="0.000324486" y1="41.388" x2="23.898"
            y2="41.388" gradientUnits="userSpaceOnUse">
            <stop stop-color="#FAD466" />
            <stop offset="0.1379" stop-color="#F9C567" />
            <stop offset="0.7203" stop-color="#F58C69" />
            <stop offset="1" stop-color="#F4756A" />
        </linearGradient>
        <linearGradient id="paint1_linear_66_65" x1="13.0747" y1="23.8813" x2="25.6034" y2="23.8813"
            gradientUnits="userSpaceOnUse">
            <stop stop-color="#B6ED4C" />
            <stop offset="0.0729167" stop-color="#A6E456" />
            <stop offset="0.2362" stop-color="#83D16E" />
            <stop offset="0.4802" stop-color="#56B98C" />
            <stop offset="0.6978" stop-color="#34A7A2" />
            <stop offset="0.8785" stop-color="#209CAF" />
            <stop offset="1" stop-color="#1998B4" />
        </linearGradient>
    </defs>
</svg>