<svg width="58" height="57" viewBox="0 0 58 57" fill="none" xmlns="http://www.w3.org/2000/svg">
<path d="M19.6568 51.0928L20.4434 51.3609L19.6744 53.5621L22.0732 51.9006L22.814 52.1546L21.6358 55.5694L20.8562 55.326L21.6217 53.1071L19.2264 54.7651L18.4785 54.5075L19.6568 51.0928Z" fill="white"/>
<path d="M27.0296 52.9834C27.2386 53.104 27.4078 53.283 27.5164 53.4984C27.6184 53.7187 27.6551 53.9635 27.6222 54.204C27.5999 54.4482 27.5054 54.6804 27.3506 54.8707C27.1957 55.055 26.9893 55.1888 26.7579 55.2552C26.483 55.3338 26.1946 55.3543 25.9113 55.3152L25.2058 55.227L25.0858 56.2147L24.2568 56.1159L24.6872 52.5283L26.2394 52.7153C26.5186 52.7486 26.7877 52.8399 27.0296 52.9834V52.9834ZM26.5322 54.5497C26.605 54.5011 26.6655 54.4364 26.7089 54.3605C26.7524 54.2845 26.7776 54.1996 26.7826 54.1122C26.7986 54.026 26.7945 53.9372 26.7706 53.8528C26.7468 53.7684 26.7038 53.6906 26.6451 53.6254C26.492 53.4903 26.2985 53.4097 26.0947 53.3961L25.4174 53.315L25.2693 54.5602L25.9466 54.6414C26.1465 54.6808 26.3539 54.6483 26.5322 54.5497V54.5497Z" fill="white"/>
<path d="M32.5891 52.5464L32.9736 56.1411L32.1481 56.2293L31.8342 53.3119L30.215 53.4883L30.5254 56.4021L29.6999 56.4903L29.3154 52.8992L32.5891 52.5464Z" fill="white"/>
<path d="M36.2398 55.132C35.913 55.0861 35.6053 54.9506 35.3509 54.7404C35.0917 54.5256 34.8964 54.2437 34.7865 53.9255C34.6709 53.6096 34.6428 53.2683 34.7053 52.9378C34.7721 52.6136 34.9258 52.3136 35.1498 52.07C35.3917 51.815 35.6901 51.6205 36.021 51.5023C36.352 51.384 36.7061 51.3452 37.0547 51.3891C37.382 51.4373 37.6902 51.5725 37.9472 51.7807C38.2071 51.9949 38.4025 52.277 38.5117 52.5956C38.6295 52.9111 38.6564 53.2533 38.5893 53.5833C38.5238 53.9073 38.3713 54.2073 38.1483 54.4511C37.9096 54.71 37.6101 54.9052 37.277 55.0191C36.9465 55.1443 36.5895 55.1832 36.2398 55.132V55.132ZM37.5345 54.0172C37.6607 53.868 37.7447 53.6877 37.7779 53.4951C37.809 53.2885 37.7872 53.0773 37.7144 52.8813C37.644 52.6817 37.5224 52.504 37.3616 52.3663C37.2143 52.2359 37.0335 52.1491 36.8395 52.1158C36.6405 52.0804 36.4356 52.0999 36.2469 52.1723C36.0557 52.237 35.8853 52.3514 35.753 52.5039C35.6242 52.6514 35.5398 52.8324 35.5096 53.026C35.4758 53.2323 35.4964 53.4439 35.5696 53.6398C35.6413 53.8388 35.7627 54.0161 35.9224 54.1548C36.0693 54.2837 36.2486 54.3703 36.4409 54.4053C36.64 54.439 36.8444 54.4195 37.0336 54.3488C37.2266 54.2839 37.3993 54.1696 37.5345 54.0172Z" fill="white"/>
<path d="M28.6347 10.6021C17.7237 10.6021 8.87988 19.2448 8.87988 29.9054C8.87988 40.5659 17.7237 49.2087 28.6347 49.2087C39.5458 49.2087 48.3896 40.5659 48.3896 29.9054C48.3896 19.2448 39.5458 10.6021 28.6347 10.6021ZM28.6347 45.2542C19.9602 45.2542 12.9261 38.3823 12.9261 29.9054C12.9261 21.4284 19.9602 14.5566 28.6347 14.5566C37.3092 14.5566 44.3399 21.4284 44.3399 29.9054C44.3399 38.3823 37.3092 45.2542 28.6347 45.2542Z" fill="white"/>
<path d="M48.3724 36.7881C48.1302 37.2266 47.9841 37.7117 47.944 38.2111C47.9038 38.7105 47.9705 39.2127 48.1396 39.6843C48.5135 40.7779 49.1979 41.6139 50.1362 41.9173C50.504 41.4964 50.7385 40.9759 50.81 40.4216C50.9148 39.8519 50.8698 39.2648 50.6795 38.7177C50.4977 38.2221 50.1889 37.7831 49.784 37.4444C49.3791 37.1057 48.8923 36.8794 48.3724 36.7881V36.7881Z" fill="white"/>
<path d="M55.5443 39.4232C55.4166 40.0567 55.142 40.6513 54.7425 41.1593C54.343 41.6672 53.8298 42.0742 53.2443 42.3476C52.7599 42.5905 52.2142 42.684 51.6765 42.6162C51.1389 42.5483 50.6335 42.3222 50.2246 41.9666C50.4358 41.4548 50.725 40.9788 51.0818 40.5556C51.4888 40.1163 51.9747 39.7573 52.5141 39.4973C53.5794 38.9117 54.7471 38.8729 55.5443 39.4232Z" fill="white"/>
<path d="M46.834 40.1074C46.5123 40.4578 46.2926 40.8897 46.1991 41.3562C46.0438 41.8595 46.0052 42.3915 46.0862 42.9119C46.2661 44.0549 46.8305 45.0285 47.6877 45.473C48.1007 45.1027 48.4137 44.6344 48.5979 44.1113C48.8185 43.569 48.8714 42.973 48.7496 42.4004C48.662 41.8828 48.4385 41.3977 48.1019 40.9948C47.7654 40.5919 47.3278 40.2857 46.834 40.1074V40.1074Z" fill="white"/>
<path d="M53.4383 43.9597C53.1948 44.5468 52.8348 45.0784 52.38 45.5224C51.8824 45.9466 51.2968 46.2551 50.6655 46.4255C50.1507 46.5845 49.5999 46.5851 49.0847 46.4272C48.5696 46.2693 48.1137 45.9602 47.7764 45.5401C48.0415 45.0558 48.4014 44.6299 48.8347 44.2877C49.3177 43.9374 49.852 43.6637 50.4186 43.4764C51.5898 43.1095 52.7504 43.2788 53.4383 43.9597Z" fill="white"/>
<path d="M44.7424 43.1309C43.9946 43.6671 43.5924 44.6548 43.5113 45.759C43.4301 46.8631 43.8852 47.9743 44.6436 48.5564C45.1297 48.259 45.5304 47.8408 45.8067 47.3425C46.0831 46.8442 46.2256 46.2829 46.2205 45.7131C46.2274 45.1899 46.0939 44.6744 45.8339 44.2202C45.574 43.7661 45.1971 43.3899 44.7424 43.1309Z" fill="white"/>
<path d="M50.581 48.0731C50.2384 48.6199 49.773 49.0792 49.2219 49.4148C48.6708 49.7504 48.0491 49.9529 47.4061 50.0063C46.8712 50.0728 46.3286 49.9777 45.8482 49.7331C45.3679 49.4886 44.9717 49.1057 44.7109 48.634C45.4671 47.7517 46.53 47.1894 47.6848 47.0607C48.9088 46.9125 50.0236 47.2864 50.581 48.0731Z" fill="white"/>
<path d="M42.125 45.7656C41.7013 45.9783 41.3375 46.2936 41.0668 46.6828C40.784 47.1262 40.5777 47.6139 40.4565 48.1256C40.3218 48.6273 40.3076 49.1536 40.4149 49.6618C40.5221 50.17 40.7479 50.6456 41.0738 51.0501C41.6095 50.8578 42.0825 50.5229 42.4419 50.0815C42.8012 49.6401 43.0332 49.109 43.1128 48.5454C43.2123 48.0361 43.1731 47.5093 42.9994 47.0203C42.8256 46.5313 42.5236 46.098 42.125 45.7656V45.7656Z" fill="white"/>
<path d="M47.0001 51.6109C46.5666 52.0733 46.0367 52.4347 45.4479 52.6692C44.8556 52.9356 44.2013 53.0332 43.5571 52.9515C42.2624 52.7998 41.4405 52.0448 41.1406 51.1277C41.56 50.7629 42.0571 50.4986 42.594 50.3551C43.1496 50.1551 43.7403 50.071 44.3296 50.1082C45.5749 50.2105 46.5662 50.7396 47.0001 51.6109Z" fill="white"/>
<path d="M49.2651 33.1577C49.1126 33.6021 49.0456 34.0713 49.0675 34.5406C49.119 35.0732 49.2825 35.5889 49.5473 36.0539C49.7609 36.5253 50.0844 36.9385 50.4908 37.2589C50.8972 37.5794 51.3744 37.7976 51.8826 37.8954C52.1608 37.3987 52.3045 36.8381 52.2995 36.2689C52.2946 35.6997 52.1412 35.1416 51.8544 34.6499C51.5929 34.1948 51.2156 33.817 50.7608 33.555C50.306 33.2929 49.79 33.1558 49.2651 33.1577V33.1577Z" fill="white"/>
<path d="M56.7965 34.5124C56.795 35.1554 56.6247 35.7867 56.3026 36.3432C56.0016 36.918 55.5718 37.4155 55.0468 37.7966C53.9355 38.5022 52.7996 38.4634 51.9883 37.9448C52.2205 36.8036 52.8678 35.7892 53.805 35.098C54.8034 34.3466 55.8793 34.0926 56.7965 34.5124Z" fill="white"/>
<path d="M49.6103 29.4889C49.4879 29.9525 49.4965 30.441 49.635 30.9C49.7925 31.4053 50.0308 31.8818 50.3405 32.3111C50.6377 32.7387 51.0322 33.0897 51.4916 33.335C51.951 33.5803 52.4621 33.713 52.9828 33.7221C53.1581 33.1965 53.2088 32.6374 53.1309 32.0888C53.0128 31.5144 52.7533 30.9785 52.376 30.5296C52.0514 30.1233 51.623 29.8121 51.1363 29.6289C50.6495 29.4458 50.1223 29.3974 49.6103 29.4889V29.4889Z" fill="white"/>
<path d="M57.2476 29.5067C57.3499 30.7237 57.0501 32.1489 56.0553 33.0344C55.0605 33.9198 53.9845 34.0927 53.0921 33.7187C53.0855 33.1592 53.2061 32.6056 53.4448 32.0995C53.6532 31.5421 53.9697 31.0314 54.3761 30.5968C55.2192 29.7007 56.3199 29.2668 57.2476 29.5067Z" fill="white"/>
<path d="M49.226 25.9474C49.2018 26.4224 49.3092 26.8948 49.5364 27.3126C49.7443 27.7958 50.0549 28.228 50.4466 28.5791C51.2932 29.341 52.3974 29.7185 53.3251 29.5104C53.3901 28.9591 53.3273 28.4002 53.1417 27.8771C52.9682 27.3168 52.6256 26.8239 52.161 26.466C51.7619 26.1267 51.2797 25.8998 50.7638 25.8087C50.248 25.7175 49.7172 25.7654 49.226 25.9474V25.9474Z" fill="white"/>
<path d="M56.7505 24.6353C56.9395 25.2454 57.002 25.8876 56.9339 26.5226C56.8306 27.1702 56.5782 27.7849 56.1966 28.3182C55.9069 28.7704 55.488 29.1252 54.9942 29.3365C54.5005 29.5479 53.9546 29.606 53.4274 29.5035C53.3041 28.9589 53.3041 28.3936 53.4274 27.849C53.5825 27.2701 53.8201 26.7164 54.133 26.2052C54.7926 25.1821 55.791 24.5648 56.7505 24.6353Z" fill="white"/>
<path d="M48.2666 22.455C48.3626 22.9461 48.562 23.4111 48.8515 23.8192C49.141 24.2273 49.514 24.5692 49.9458 24.8221C50.9265 25.4218 51.9918 25.6193 52.9055 25.2454C52.9193 24.6875 52.7657 24.1383 52.4645 23.6685C52.1765 23.1678 51.7678 22.747 51.2757 22.4444C50.8166 22.184 50.2975 22.048 49.7697 22.0498C49.242 22.0517 48.7238 22.1914 48.2666 22.455Z" fill="white"/>
<path d="M55.4526 19.8516C55.7601 20.4209 55.9301 21.0544 55.9491 21.7012C55.9681 22.348 55.8355 22.9903 55.5619 23.5768C55.3478 24.0751 54.9903 24.4986 54.5349 24.7932C54.0795 25.0878 53.5467 25.2403 53.0044 25.2312C52.8393 24.7025 52.7549 24.1519 52.7539 23.5979C52.7782 22.9944 52.9196 22.4013 53.1702 21.8517C53.6217 20.7264 54.486 19.9468 55.4526 19.8516Z" fill="white"/>
<path d="M46.7568 19.153C46.9223 19.5929 47.1715 19.9967 47.4906 20.3418C47.872 20.7137 48.3259 21.0031 48.824 21.192C49.2905 21.4155 49.8038 21.5235 50.3208 21.507C50.8378 21.4904 51.3432 21.3497 51.7943 21.0967C51.6909 20.5375 51.4426 20.0153 51.0743 19.582C50.706 19.1487 50.2306 18.8195 49.6954 18.6274C49.2031 18.4456 48.6712 18.3985 48.1547 18.4909C47.6381 18.5833 47.1556 18.8119 46.7568 19.153V19.153Z" fill="white"/>
<path d="M53.3751 15.3325C53.7858 15.827 54.0595 16.4206 54.1688 17.054C54.3137 17.688 54.3028 18.3477 54.1371 18.9766C53.7455 20.2395 52.8459 20.9344 51.8935 21.0614C51.3415 20.0358 51.187 18.8426 51.4596 17.7102C51.763 16.4931 52.4226 15.6077 53.3751 15.3325Z" fill="white"/>
<path d="M44.7109 16.2149C44.9268 16.6376 45.243 17.0009 45.6317 17.2732C46.0779 17.5569 46.5677 17.7654 47.0815 17.8906C47.5842 18.0251 48.1116 18.0386 48.6205 17.9301C49.1294 17.8216 49.6054 17.5941 50.0095 17.2662C49.8173 16.7274 49.4819 16.2513 49.0393 15.8889C48.5968 15.5266 48.0638 15.2917 47.4978 15.2095C46.9858 15.1115 46.4568 15.1531 45.9665 15.33C45.4761 15.5069 45.0424 15.8126 44.7109 16.2149V16.2149Z" fill="white"/>
<path d="M50.5738 11.3008C51.0373 11.7388 51.3986 12.2736 51.6321 12.8671C51.8996 13.464 51.9984 14.1228 51.9178 14.772C51.7662 16.0737 51.0077 16.9133 50.087 17.2061C49.722 16.7828 49.4579 16.2823 49.3144 15.7421C49.11 15.1778 49.0248 14.5772 49.064 13.9783C49.1663 12.7365 49.6954 11.7241 50.5738 11.3008Z" fill="white"/>
<path d="M42.1182 13.608C42.6508 14.3593 43.6351 14.7615 44.7357 14.8426C45.8363 14.9238 46.9475 14.4687 47.5261 13.7067C47.2315 13.2226 46.8169 12.8228 46.3225 12.5459C45.8281 12.2691 45.2706 12.1245 44.7039 12.1263C44.1796 12.1181 43.6626 12.2513 43.2076 12.5121C42.7525 12.7728 42.3762 13.1514 42.1182 13.608V13.608Z" fill="white"/>
<path d="M47.0427 7.75537C47.5881 8.09919 48.0462 8.56489 48.381 9.11581C48.7159 9.66673 48.9183 10.2878 48.9724 10.9303C49.0605 12.2284 48.4644 13.1844 47.6036 13.6324C46.7242 12.8715 46.1637 11.8072 46.0338 10.6516C45.8857 9.43453 46.2596 8.31274 47.0427 7.75537Z" fill="white"/>
<path d="M39.0771 11.4841C39.4237 11.8081 39.8537 12.0292 40.3189 12.1226C40.8222 12.2776 41.3542 12.3162 41.8746 12.2355C43.014 12.0556 43.9912 11.4912 44.4286 10.6304C44.0576 10.2176 43.5896 9.90358 43.0669 9.71675C42.5271 9.496 41.9334 9.44314 41.3631 9.56506C40.8461 9.65338 40.3619 9.87767 39.9601 10.2149C39.5584 10.5521 39.2537 10.9902 39.0771 11.4841V11.4841Z" fill="white"/>
<path d="M42.9153 4.88037C43.5024 5.12381 44.034 5.48384 44.478 5.93867C44.9009 6.43877 45.207 7.02687 45.374 7.66016C45.5344 8.17537 45.5364 8.72685 45.3798 9.2432C45.2232 9.75955 44.9152 10.217 44.4957 10.5564C44.0092 10.2823 43.5842 9.91126 43.2469 9.46632C42.8965 8.98201 42.6228 8.44657 42.4355 7.87888C42.0686 6.71828 42.238 5.55415 42.9153 4.88037Z" fill="white"/>
<path d="M35.708 9.92812C36.1451 10.1709 36.629 10.3172 37.1274 10.3574C37.6257 10.3975 38.1269 10.3306 38.5972 10.1609C39.6872 9.80818 40.5197 9.10265 40.8231 8.16077C40.4036 7.79238 39.8843 7.55667 39.3309 7.48346C38.7634 7.37792 38.178 7.42416 37.6341 7.61751C37.1387 7.80011 36.7001 8.10969 36.362 8.51521C36.024 8.92074 35.7984 9.40798 35.708 9.92812V9.92812Z" fill="white"/>
<path d="M38.3356 2.73535C38.9681 2.86475 39.5613 3.14095 40.0675 3.54169C40.5736 3.94243 40.9785 4.4565 41.2495 5.04244C41.4904 5.52591 41.5831 6.06979 41.516 6.60578C41.4488 7.14177 41.2248 7.64597 40.872 8.05505C40.3587 7.84683 39.8823 7.5574 39.461 7.19783C39.0215 6.78966 38.6625 6.30265 38.4027 5.76208C37.8241 4.70731 37.7889 3.53966 38.3356 2.73535Z" fill="white"/>
<path d="M32.2159 8.95473C32.6821 9.1258 33.181 9.18928 33.6752 9.14041C34.1694 9.09154 34.6461 8.93159 35.0698 8.67252C35.5358 8.46051 35.9441 8.13964 36.2603 7.73692C36.5764 7.3342 36.7912 6.86142 36.8866 6.35838C36.3973 6.08287 35.8444 5.94049 35.283 5.94544C34.7216 5.95039 34.1712 6.1025 33.687 6.3866C33.236 6.64569 32.8621 7.02009 32.6036 7.4714C32.3451 7.9227 32.2113 8.43465 32.2159 8.95473V8.95473Z" fill="white"/>
<path d="M33.5351 1.49707C34.1701 1.49682 34.7936 1.6661 35.3413 1.98741C35.9078 2.28578 36.3978 2.71068 36.7735 3.22915C37.479 4.3333 37.4296 5.45863 36.9217 6.26293C35.7889 6.03536 34.7823 5.39236 34.0995 4.4603C33.387 3.46903 33.1365 2.41073 33.5351 1.49707Z" fill="white"/>
<path d="M28.4974 8.59479C28.9519 8.71335 29.4303 8.70481 29.8803 8.57009C30.377 8.41013 30.845 8.17196 31.2666 7.86456C31.6887 7.56592 32.0345 7.17203 32.276 6.71482C32.5175 6.2576 32.6479 5.74993 32.6565 5.23293C32.1366 5.06491 31.5852 5.01786 31.0444 5.09535C30.4778 5.21374 29.9494 5.47068 29.5063 5.84322C29.1069 6.16925 28.8025 6.5967 28.625 7.0808C28.4475 7.56489 28.4034 8.08782 28.4974 8.59479Z" fill="white"/>
<path d="M28.5152 1.0175C29.7146 0.9152 31.1186 1.21505 31.997 2.20279C32.8753 3.19054 33.0553 4.25589 32.6743 5.14133C32.1218 5.14629 31.5753 5.02567 31.0762 4.78856C30.526 4.58182 30.0223 4.26764 29.5946 3.86432C28.7021 3.03179 28.2753 1.94175 28.5152 1.0175Z" fill="white"/>
<path d="M14.549 4.70736C4.20241 10.7291 1.70131 19.9398 1.70131 19.9398C0.591595 22.969 0.0162742 26.1679 0.000976562 29.3939C0.000976563 36.4492 2.34334 42.9754 6.56241 47.9917C6.56241 47.9917 11.8539 53.8017 12.5947 53.1632C14.5215 51.5829 16.1694 49.6905 17.4699 47.5648C17.1983 47.399 16.8667 47.1697 16.6056 46.9934L13.6671 48.7572L12.9933 48.6725L9.38806 45.039C9.35632 44.785 9.33515 44.6122 9.30693 44.3617L11.1025 41.3526C10.1799 39.9566 9.4256 38.4563 8.85539 36.8831C8.73898 36.5727 8.63667 36.2516 8.53084 35.9342C8.45676 35.6943 8.38621 35.4332 8.31918 35.1898C8.17808 34.703 8.0793 34.195 7.96642 33.6941C7.94878 33.6059 7.93467 33.5142 7.91703 33.4225L4.63279 32.6005L4.23416 32.0432V26.8258L4.65395 26.286L8.0405 25.4464C8.0405 25.3829 8.07225 25.3265 8.08283 25.263C8.20983 24.6457 8.3721 24.0812 8.54848 23.4815C9.15783 21.4593 10.0829 19.5461 11.2895 17.8126L9.52564 14.9164C9.55739 14.6659 9.57856 14.4931 9.61031 14.2391L13.4061 10.4892L14.0834 10.4081L16.7785 11.999L17.2724 12.3165L17.3218 12.2883C17.6745 12.0555 18.0696 11.8226 18.4471 11.6075L19.1526 11.23C19.6183 10.9901 20.0804 10.7785 20.5637 10.5703L20.8988 10.4327C22.213 9.9398 23.5732 9.57937 24.9591 9.35681L25.3754 5.82916L25.9116 5.40937L28.5573 5.24004V0.999799C23.6425 0.97748 18.8093 2.25667 14.549 4.70736V4.70736Z" fill="white"/>
<path d="M12.8695 22.6738C12.8709 22.7655 12.845 22.8555 12.7951 22.9325C12.7452 23.0094 12.6735 23.0697 12.5892 23.1058C12.5049 23.1418 12.4117 23.152 12.3216 23.135C12.2315 23.1179 12.1485 23.0745 12.0832 23.0102C12.0179 22.9458 11.9731 22.8635 11.9547 22.7737C11.9363 22.6838 11.945 22.5906 11.9798 22.5057C12.0146 22.4209 12.0738 22.3483 12.1499 22.2972C12.2261 22.2461 12.3157 22.2188 12.4074 22.2188C12.4676 22.2183 12.5273 22.2297 12.5831 22.2523C12.639 22.2749 12.6898 22.3083 12.7327 22.3506C12.7756 22.3928 12.8098 22.4431 12.8333 22.4986C12.8567 22.5541 12.869 22.6136 12.8695 22.6738V22.6738Z" fill="#306EE2"/>
<path d="M45.4086 22.6563C45.41 22.7479 45.3841 22.838 45.3341 22.9149C45.2842 22.9918 45.2125 23.0521 45.1282 23.0882C45.0439 23.1243 44.9508 23.1344 44.8607 23.1174C44.7706 23.1004 44.6876 23.0569 44.6223 22.9926C44.5569 22.9282 44.5122 22.8459 44.4938 22.7561C44.4754 22.6663 44.4841 22.573 44.5189 22.4881C44.5536 22.4033 44.6128 22.3307 44.689 22.2796C44.7651 22.2285 44.8547 22.2012 44.9464 22.2012C45.0067 22.2007 45.0664 22.2121 45.1222 22.2347C45.178 22.2574 45.2288 22.2907 45.2718 22.333C45.3147 22.3753 45.3488 22.4256 45.3723 22.481C45.3958 22.5365 45.4081 22.596 45.4086 22.6563V22.6563Z" fill="#306EE2"/>
<path d="M15.3993 19.8832L15.1735 20.2148L14.2986 19.6186L14.8172 20.7545L14.595 21.0791L13.2686 20.1901L13.4908 19.8585L14.2845 20.4018L13.8365 19.3435L14.0834 18.9907L15.3993 19.8832Z" fill="#306EE2"/>
<path d="M16.8354 18.2005L16.5638 18.5074L16.0417 18.0382L15.636 18.4898L16.1581 18.9589L15.8829 19.2658L14.7012 18.2076L14.9763 17.9006L15.4067 18.2852L15.8124 17.8336L15.3785 17.4456L15.6536 17.1387L16.8354 18.2005Z" fill="#306EE2"/>
<path d="M17.9922 17.1986C17.9085 17.2726 17.8131 17.3322 17.7099 17.375C17.615 17.4139 17.5125 17.4308 17.4101 17.4244C17.3069 17.4186 17.2065 17.3884 17.1173 17.3362C17.0101 17.279 16.9154 17.2011 16.8386 17.1069C16.7605 17.0184 16.6984 16.917 16.6552 16.8071C16.6173 16.7094 16.6016 16.6046 16.6093 16.5002C16.6151 16.397 16.6453 16.2966 16.6975 16.2074C16.7524 16.1067 16.8254 16.017 16.9127 15.9428C16.959 15.9038 17.0072 15.8673 17.0573 15.8334L17.1879 15.7594C17.2197 15.7408 17.2527 15.7243 17.2866 15.71L17.396 15.6782L17.6465 15.971L17.6112 15.9992H17.5159H17.3925C17.3468 16.0101 17.302 16.0243 17.2584 16.0416C17.2116 16.0592 17.1685 16.0856 17.1314 16.1192C17.0904 16.1564 17.0548 16.1991 17.0256 16.2462C16.9956 16.2965 16.9786 16.3535 16.9762 16.412C16.9706 16.4757 16.9803 16.5397 17.0044 16.5989C17.034 16.6764 17.077 16.7481 17.1314 16.8106C17.1863 16.8759 17.2534 16.9298 17.329 16.9693C17.3817 17.0011 17.4413 17.0196 17.5027 17.0233C17.5642 17.027 17.6256 17.0157 17.6817 16.9905C17.7309 16.9681 17.7772 16.9397 17.8193 16.9058C17.8576 16.8729 17.8899 16.8335 17.9146 16.7894C17.9421 16.748 17.9635 16.7029 17.9781 16.6554C17.9919 16.6187 18.0025 16.581 18.0098 16.5425C18.0098 16.5037 18.0098 16.4755 18.0098 16.4473L18.0451 16.419L18.292 16.7083L18.2391 16.8212C18.2391 16.8565 18.2003 16.8917 18.1791 16.927C18.158 16.9623 18.1192 17.0152 18.0909 17.0505C18.0607 17.1016 18.0278 17.1511 17.9922 17.1986V17.1986Z" fill="#306EE2"/>
<path d="M19.2554 14.6237L18.8427 14.9024L19.5482 15.9607L19.1954 16.19L18.4899 15.1317L18.0772 15.4104L17.9043 15.1564L19.0684 14.3662L19.2554 14.6237Z" fill="#306EE2"/>
<path d="M21.8156 14.7011L21.4628 14.881L20.9831 13.9356L20.8737 15.1809L20.521 15.3608L19.8154 13.9497L20.1682 13.7663L20.6021 14.6235L20.715 13.4876L21.1066 13.29L21.8156 14.7011Z" fill="#306EE2"/>
<path d="M23.2831 12.7609L22.814 12.9303L23.2479 14.1403L22.8633 14.2778L22.4365 13.0679L21.9673 13.2372L21.8721 12.9479L23.1914 12.4717L23.2831 12.7609Z" fill="#306EE2"/>
<path d="M25.351 11.9355L25.0688 13.3078C25.0572 13.3773 25.0333 13.4442 24.9982 13.5054C24.9703 13.5554 24.9332 13.5996 24.8889 13.6359C24.8514 13.6654 24.8098 13.6891 24.7654 13.7064C24.7236 13.7247 24.6798 13.7377 24.6349 13.7452L24.462 13.784L24.328 13.8052L24.2504 13.4524H24.2751H24.3527H24.4656C24.522 13.4413 24.5766 13.4223 24.6278 13.396C24.6573 13.3805 24.6809 13.3557 24.6949 13.3254L23.7988 12.2883L24.2327 12.1895L24.7866 12.8386L24.9347 12.0273L25.351 11.9355Z" fill="#306EE2"/>
<path d="M27.4072 11.9812L26.9133 12.0376L27.0509 13.3146L26.6417 13.3464L26.5041 12.0658L26.0103 12.1188L25.9785 11.8118L27.3896 11.6602L27.4072 11.9812Z" fill="#306EE2"/>
<path d="M30.7372 12.2565C30.7334 12.3287 30.7154 12.3995 30.6843 12.4647C30.6555 12.5262 30.6147 12.5814 30.5643 12.627C30.4994 12.6828 30.4238 12.7248 30.3421 12.7504C30.2473 12.7788 30.1478 12.7884 30.0493 12.7786L29.7953 12.7575L29.753 13.276L29.3438 13.2443L29.4672 11.6533L30.141 11.7062C30.2271 11.7118 30.3124 11.7272 30.395 11.7521C30.4582 11.7733 30.5177 11.8043 30.5714 11.8438C30.6296 11.8896 30.6756 11.9489 30.7054 12.0167C30.7346 12.093 30.7455 12.1752 30.7372 12.2565V12.2565ZM30.3139 12.2354C30.3171 12.1962 30.3088 12.157 30.29 12.1225C30.2712 12.088 30.2427 12.0598 30.208 12.0414C30.1691 12.0221 30.1275 12.009 30.0846 12.0026H29.9258H29.8553L29.8165 12.4788H29.9329C29.9904 12.4823 30.0482 12.4823 30.1057 12.4788C30.1481 12.4727 30.1889 12.4583 30.2257 12.4365C30.2533 12.4166 30.2752 12.3898 30.2892 12.3589C30.3047 12.3195 30.3131 12.2777 30.3139 12.2354V12.2354Z" fill="#306EE2"/>
<path d="M32.7734 13.7418L32.3607 13.6536L32.3148 13.3185L31.7504 13.1985L31.5776 13.4913L31.1719 13.4102L32.0644 11.9639L32.5265 12.0591L32.7734 13.7418ZM32.276 13.0116L32.1984 12.4119L31.895 12.934L32.276 13.0116Z" fill="#306EE2"/>
<path d="M34.6853 13.8579C34.6641 13.9309 34.6254 13.9975 34.5724 14.0519C34.5215 14.1025 34.4582 14.139 34.3889 14.1577C34.3063 14.1806 34.2204 14.189 34.1349 14.1824C34.0241 14.1716 33.915 14.1467 33.8104 14.1084C33.7075 14.0748 33.6083 14.0311 33.5141 13.9778C33.4322 13.9315 33.3543 13.8784 33.2812 13.8191L33.3941 13.4663H33.4329L33.5035 13.5404C33.5335 13.5728 33.5653 13.6034 33.5987 13.6321L33.7222 13.7203C33.7649 13.7477 33.8112 13.7691 33.8598 13.7838C33.9087 13.8025 33.9596 13.8155 34.0115 13.8226C34.0525 13.8281 34.094 13.8281 34.1349 13.8226C34.1697 13.8146 34.2022 13.7989 34.2302 13.7768C34.2577 13.7577 34.2787 13.7306 34.2902 13.6992C34.2981 13.6655 34.2981 13.6305 34.2902 13.5969C34.2867 13.568 34.2744 13.5409 34.2549 13.5192C34.2301 13.4948 34.2015 13.4746 34.1702 13.4593C34.128 13.4386 34.0844 13.4209 34.0397 13.4064L33.7645 13.3111L33.8527 13.043L34.1208 13.1312C34.1641 13.1469 34.2091 13.1576 34.2549 13.163C34.2862 13.1704 34.3188 13.1704 34.3501 13.163C34.374 13.1551 34.3958 13.1418 34.4136 13.1241C34.4288 13.1025 34.4407 13.0787 34.4489 13.0536C34.4575 13.0295 34.4584 13.0033 34.4514 12.9786C34.4445 12.954 34.43 12.9321 34.4101 12.916C34.3529 12.8692 34.287 12.8344 34.2161 12.8137C34.1667 12.7973 34.1159 12.7855 34.0644 12.7784H33.9268H33.8069H33.7081H33.6728L33.7787 12.4609C33.8707 12.4607 33.9626 12.4665 34.0538 12.4786C34.1629 12.4932 34.2704 12.518 34.3748 12.5527C34.5397 12.5968 34.6896 12.6845 34.8087 12.8067C34.8475 12.8494 34.8738 12.9018 34.885 12.9584C34.8962 13.0149 34.8918 13.0734 34.8722 13.1277C34.8448 13.2096 34.7884 13.2786 34.7135 13.3217C34.6349 13.3647 34.5452 13.3831 34.456 13.3746V13.3746C34.4924 13.3945 34.5267 13.4181 34.5583 13.4452C34.594 13.4733 34.6239 13.508 34.6465 13.5475C34.6719 13.5883 34.6887 13.6339 34.6958 13.6815C34.7065 13.7403 34.7028 13.8008 34.6853 13.8579V13.8579Z" fill="#306EE2"/>
<path d="M36.6356 14.7295C36.6049 14.7948 36.5589 14.8517 36.5015 14.8953C36.4489 14.9364 36.3872 14.9642 36.3216 14.9765C36.246 14.9924 36.1679 14.9924 36.0923 14.9765C35.9993 14.9562 35.9092 14.9242 35.8242 14.8812L35.1963 14.5814L35.9018 13.1421L36.4557 13.4102C36.5422 13.4489 36.6259 13.4937 36.7061 13.5442C36.7582 13.578 36.8037 13.621 36.8402 13.6712C36.8795 13.7197 36.904 13.7785 36.9107 13.8406C36.9139 13.9029 36.9006 13.965 36.8719 14.0205C36.8423 14.0866 36.793 14.1421 36.7308 14.1792C36.6646 14.2141 36.5904 14.2311 36.5156 14.2286V14.2286C36.5937 14.2834 36.6528 14.3611 36.685 14.4509C36.706 14.5466 36.6883 14.6468 36.6356 14.7295V14.7295ZM36.2511 14.539C36.2734 14.5033 36.2821 14.4607 36.2758 14.4191C36.2657 14.3802 36.2435 14.3456 36.2123 14.3203C36.1775 14.2925 36.1396 14.2689 36.0994 14.2498L35.9406 14.1757L35.863 14.1369L35.6902 14.4897H35.7184L35.9406 14.5955C35.984 14.6155 36.0306 14.6274 36.0782 14.6308C36.1168 14.6339 36.1553 14.6239 36.1876 14.6025C36.2136 14.5868 36.2354 14.5651 36.2511 14.539V14.539ZM36.4416 13.9111C36.4472 13.8844 36.4472 13.8567 36.4416 13.83C36.4408 13.8146 36.437 13.7994 36.4303 13.7855C36.4236 13.7716 36.4143 13.7591 36.4027 13.7488C36.3826 13.7296 36.3601 13.713 36.3357 13.6995L36.1664 13.6183H36.1311L35.9865 13.9217L36.0429 13.9499L36.1946 14.0205C36.2279 14.0356 36.2639 14.044 36.3004 14.0452C36.3172 14.0476 36.3342 14.0467 36.3506 14.0424C36.3669 14.0382 36.3823 14.0307 36.3957 14.0205C36.4216 13.9895 36.4376 13.9514 36.4416 13.9111Z" fill="#306EE2"/>
<path d="M38.2448 16.303L37.8921 16.0842L38.4706 15.1953L37.3382 15.7244L37.0137 15.5128L37.8779 14.1758L38.2307 14.3945L37.7086 15.1988L38.7458 14.7296L39.0985 14.966L38.2448 16.303Z" fill="#306EE2"/>
<path d="M40.6571 16.6098L40.2761 16.2887L39.4472 17.273L39.1367 17.0084L39.9622 16.0242L39.5847 15.7032L39.7823 15.4668L40.8406 16.3769L40.6571 16.6098Z" fill="#306EE2"/>
<path d="M41.2743 19.104L41.0026 18.8112L41.7822 18.1056L40.5546 18.3385L40.29 18.0492L41.4577 16.9697L41.7293 17.2625L41.0238 17.9151L42.1421 17.7141L42.4384 18.0386L41.2743 19.104Z" fill="#306EE2"/>
<path d="M42.5344 20.8146L42.3016 20.4618L42.7778 20.1267L42.6473 19.9433H41.9418L41.6631 19.5446H42.4744C42.4477 19.4513 42.4477 19.3523 42.4744 19.2589C42.5116 19.1602 42.5797 19.076 42.6685 19.019C42.7281 18.9746 42.799 18.9477 42.8731 18.9414C42.9411 18.9352 43.0096 18.9437 43.0741 18.9661C43.1335 18.9911 43.1883 19.0257 43.2364 19.0684C43.2951 19.1233 43.3472 19.1849 43.3916 19.2519L43.822 19.8586L42.5344 20.8146ZM43.0106 19.9785L43.3634 19.7316L43.247 19.5623C43.2117 19.5129 43.1835 19.4741 43.1623 19.4494C43.1364 19.4239 43.1051 19.4046 43.0706 19.393C43.0417 19.3858 43.0114 19.3858 42.9824 19.393C42.9505 19.3992 42.9204 19.4124 42.8942 19.4318C42.8655 19.4509 42.8414 19.4762 42.8237 19.5058C42.8085 19.5328 42.8001 19.5631 42.799 19.594C42.7988 19.6285 42.8073 19.6625 42.8237 19.6928C42.8449 19.7359 42.8697 19.7772 42.8978 19.8163L43.0106 19.9785Z" fill="#306EE2"/>
<path d="M10.2314 28.2267L10.2773 27.8104L11.5508 27.9657L11.6425 27.3695L10.369 27.2143L10.4184 26.8086L11.9953 26.9991L11.8259 28.4101L10.2314 28.2267Z" fill="#306EE2"/>
<path d="M11.2893 30.4982C11.2184 30.4989 11.1479 30.4869 11.0812 30.4629C11.0177 30.4404 10.9599 30.4043 10.9119 30.3571C10.85 30.2969 10.8008 30.225 10.7672 30.1454C10.7322 30.0519 10.7154 29.9525 10.7178 29.8527V29.5987H10.1816V29.1895H11.7726V29.8562C11.7747 29.9427 11.7664 30.0292 11.7479 30.1137C11.7323 30.1798 11.7061 30.2429 11.6703 30.3007C11.6297 30.3631 11.5739 30.414 11.508 30.4488C11.4396 30.4809 11.3649 30.4978 11.2893 30.4982V30.4982ZM11.2893 30.0749C11.3314 30.0757 11.3725 30.062 11.4057 30.0361C11.4358 30.0149 11.4591 29.9855 11.4728 29.9514C11.4901 29.9125 11.4997 29.8706 11.501 29.828C11.501 29.7856 11.501 29.7327 11.501 29.6622V29.5951H11.0001V29.7151C10.9939 29.7725 10.9939 29.8305 11.0001 29.8879C11.0069 29.9291 11.0238 29.9679 11.0494 30.0008C11.0729 30.0259 11.1019 30.0452 11.1341 30.0573C11.1749 30.0714 11.218 30.0774 11.2611 30.0749H11.2893Z" fill="#306EE2"/>
<path d="M11.2297 32.784C11.1217 32.8034 11.0109 32.8012 10.9038 32.7776C10.7966 32.7539 10.6952 32.7094 10.6053 32.6464C10.5178 32.5775 10.4456 32.4911 10.3933 32.3927C10.3411 32.2943 10.31 32.1861 10.3019 32.075C10.2824 31.9665 10.2851 31.8552 10.31 31.7479C10.3349 31.6405 10.3813 31.5394 10.4466 31.4506C10.517 31.3653 10.6039 31.295 10.7021 31.2441C10.8003 31.1932 10.9078 31.1626 11.0181 31.1542C11.1266 31.133 11.2383 31.1342 11.3463 31.1579C11.4543 31.1815 11.5563 31.2271 11.646 31.2918C11.7326 31.3605 11.804 31.4465 11.8556 31.5443C11.9072 31.642 11.938 31.7495 11.9458 31.8598C11.9658 31.9685 11.9635 32.0802 11.9393 32.1881C11.915 32.296 11.8693 32.3979 11.8047 32.4877C11.6593 32.6581 11.4528 32.7645 11.2297 32.784ZM10.7605 32.2972C10.8168 32.3304 10.8792 32.352 10.944 32.3607C11.0212 32.3713 11.0996 32.3713 11.1768 32.3607C11.2586 32.3509 11.3384 32.3282 11.4132 32.2937C11.4705 32.2693 11.5222 32.2333 11.5648 32.1878C11.6011 32.146 11.6276 32.0966 11.6425 32.0432C11.6529 31.9944 11.6529 31.9439 11.6425 31.895C11.6352 31.8446 11.6197 31.7958 11.5966 31.7504C11.5691 31.705 11.5317 31.6664 11.4872 31.6375C11.4338 31.603 11.3737 31.5802 11.3109 31.5705C11.2301 31.5599 11.1482 31.5599 11.0674 31.5705C10.9862 31.5809 10.9067 31.6023 10.8311 31.634C10.7751 31.6609 10.7239 31.6966 10.6794 31.7398C10.6453 31.78 10.62 31.8268 10.6053 31.8774C10.5947 31.9286 10.5947 31.9814 10.6053 32.0326C10.6132 32.0833 10.63 32.1323 10.6547 32.1773C10.6803 32.2248 10.7165 32.2658 10.7605 32.2972V32.2972Z" fill="#306EE2"/>
<path d="M12.2592 34.9429C12.2267 35.0179 12.1757 35.0835 12.111 35.1334C12.0395 35.1906 11.9565 35.2315 11.8676 35.2533C11.7807 35.2792 11.6894 35.2865 11.5995 35.2745C11.5175 35.2604 11.4394 35.2291 11.3702 35.1828C11.2977 35.1302 11.2345 35.0658 11.1832 34.9923C11.1256 34.9057 11.0793 34.8121 11.0457 34.7136L10.8799 34.7595L10.7705 34.3644L10.9398 34.3185C10.9167 34.218 10.9084 34.1146 10.9151 34.0116C10.9183 33.9216 10.9386 33.833 10.9751 33.7506C11.0111 33.6747 11.0628 33.6074 11.1268 33.553C11.1978 33.4972 11.2794 33.4564 11.3667 33.4331C11.452 33.4056 11.5426 33.3984 11.6313 33.4119C11.7124 33.4232 11.7897 33.4534 11.857 33.5001C11.9293 33.5519 11.9914 33.6165 12.0405 33.6906C12.0968 33.7805 12.1429 33.8763 12.178 33.9763L12.3368 33.934L12.4426 34.3256L12.2874 34.3714C12.3111 34.4743 12.3217 34.5798 12.3191 34.6854C12.3164 34.7744 12.296 34.8619 12.2592 34.9429V34.9429ZM11.2009 34.2374L11.9311 34.0363C11.8981 33.9513 11.8354 33.8811 11.7547 33.8388C11.6704 33.808 11.578 33.808 11.4937 33.8388C11.4017 33.8569 11.3185 33.9054 11.2573 33.9763C11.2288 34.0149 11.2085 34.0589 11.1976 34.1056C11.1867 34.1523 11.1854 34.2008 11.1938 34.248L11.2009 34.2374ZM11.7688 34.83C11.8576 34.8117 11.9359 34.7599 11.9875 34.6854C12.0356 34.61 12.0532 34.5193 12.0369 34.4314L11.2891 34.6431C11.3048 34.688 11.3295 34.7293 11.3616 34.7645C11.3938 34.7997 11.4327 34.828 11.476 34.8477C11.5695 34.8766 11.6699 34.8741 11.7618 34.8406L11.7688 34.83Z" fill="#306EE2"/>
<path d="M11.84 37.3348L11.3955 36.2765L12.863 35.6592L13.3075 36.7175L13.0253 36.8374L12.736 36.1495L12.482 36.2589L12.7501 36.8939L12.4679 37.0138L12.1998 36.3753L11.847 36.5305L12.1363 37.2149L11.84 37.3348Z" fill="#306EE2"/>
<path d="M12.552 38.7777C12.4969 38.6802 12.4588 38.5741 12.4391 38.4638C12.4161 38.3651 12.4161 38.2625 12.4391 38.1639C12.468 38.0633 12.5172 37.9696 12.5838 37.8888C12.6644 37.7966 12.7612 37.7201 12.8695 37.663C12.9704 37.6062 13.0801 37.5669 13.1941 37.5466C13.2963 37.5235 13.4023 37.5235 13.5045 37.5466C13.6038 37.5735 13.6956 37.623 13.7726 37.6912C13.8598 37.7656 13.9327 37.8552 13.9878 37.9558C14.0166 38.0096 14.0425 38.065 14.0654 38.1216C14.085 38.1683 14.1003 38.2167 14.1112 38.2662C14.1243 38.3099 14.1325 38.3548 14.1359 38.4003C14.1359 38.4426 14.1359 38.4814 14.1359 38.5132L13.7832 38.7001L13.762 38.6613C13.762 38.6331 13.762 38.6014 13.762 38.5661C13.7658 38.5238 13.7658 38.4813 13.762 38.4391C13.7654 38.3933 13.7654 38.3473 13.762 38.3015C13.7528 38.2517 13.7349 38.204 13.7091 38.1604C13.6822 38.1117 13.6476 38.0677 13.6068 38.0299C13.5632 37.9933 13.5129 37.9657 13.4586 37.9487C13.396 37.9343 13.3308 37.9343 13.2681 37.9487C13.1017 37.98 12.9503 38.0656 12.8378 38.1921C12.7985 38.2424 12.7697 38.2999 12.7531 38.3615C12.7394 38.4171 12.7394 38.4752 12.7531 38.5308C12.7627 38.5838 12.7806 38.635 12.806 38.6825C12.8315 38.7251 12.8623 38.7642 12.8977 38.7989C12.9335 38.8336 12.9739 38.8633 13.0177 38.8871C13.0515 38.9075 13.0869 38.9252 13.1235 38.94C13.1515 38.9551 13.181 38.9669 13.2117 38.9753L13.2329 39.0141L12.8801 39.2011L12.7813 39.1234C12.749 39.0984 12.7184 39.0713 12.6896 39.0423C12.6548 39.0076 12.6218 38.9711 12.5908 38.933C12.5743 38.8822 12.5613 38.8303 12.552 38.7777V38.7777Z" fill="#306EE2"/>
<path d="M13.706 40.5699C13.6427 40.4787 13.5928 40.3789 13.5578 40.2736C13.5288 40.1752 13.5204 40.0719 13.5331 39.9702C13.5493 39.8678 13.5878 39.7702 13.646 39.6844C13.7129 39.5827 13.7992 39.4952 13.9 39.4269C13.9943 39.3565 14.1007 39.3039 14.214 39.2717C14.3143 39.2403 14.4207 39.233 14.5244 39.2505C14.6255 39.2672 14.7219 39.3057 14.8066 39.3634C14.9003 39.4282 14.9825 39.508 15.05 39.5998C15.0853 39.6493 15.1171 39.7011 15.1453 39.755C15.1688 39.8044 15.1899 39.8502 15.2088 39.8926C15.2245 39.9364 15.2374 39.9812 15.2476 40.0266C15.2476 40.0654 15.2652 40.1042 15.2687 40.136L14.9583 40.3617L14.9301 40.3229C14.9301 40.2982 14.9301 40.2665 14.9301 40.2277C14.9335 40.1866 14.9335 40.1453 14.9301 40.1042C14.9258 40.0575 14.9163 40.0113 14.9019 39.9666C14.8875 39.9184 14.8648 39.8731 14.8348 39.8326C14.8024 39.7879 14.7631 39.7486 14.7184 39.7162C14.6702 39.684 14.6163 39.6613 14.5597 39.6492C14.4971 39.6339 14.4318 39.6339 14.3692 39.6492C14.2902 39.6718 14.216 39.7089 14.1505 39.7585C14.0801 39.8071 14.0191 39.868 13.9706 39.9384C13.9381 39.9938 13.9165 40.0549 13.9071 40.1183C13.8948 40.1729 13.8948 40.2296 13.9071 40.2841C13.9226 40.3358 13.9464 40.3847 13.9776 40.4288C14.0064 40.47 14.0423 40.5058 14.0834 40.5346C14.1215 40.5659 14.1644 40.5909 14.2104 40.6087L14.3198 40.651L14.4115 40.6757L14.4397 40.711L14.1293 40.9332L14.0235 40.8697L13.9212 40.7992C13.8788 40.7674 13.8436 40.7322 13.8083 40.7004C13.7721 40.6586 13.738 40.615 13.706 40.5699V40.5699Z" fill="#306EE2"/>
<path d="M15.5828 42.7358L15.3112 42.443L16.0873 41.7375L14.8632 41.9738L14.5986 41.6846L15.7663 40.6016L16.0344 40.8979L15.3289 41.5505L16.4507 41.3494L16.747 41.6704L15.5828 42.7358Z" fill="#306EE2"/>
<path d="M17.9923 43.7729C17.9261 43.8613 17.8431 43.9358 17.7481 43.9921C17.653 44.0484 17.5478 44.0854 17.4384 44.101C17.2146 44.1085 16.9955 44.0348 16.8218 43.8935C16.648 43.7521 16.5312 43.5527 16.493 43.3319C16.483 43.1088 16.5616 42.8907 16.7118 42.7252C16.7781 42.6361 16.8616 42.5612 16.9573 42.5048C17.053 42.4485 17.159 42.4119 17.2691 42.3971C17.379 42.3902 17.4892 42.4057 17.5929 42.4427C17.6966 42.4797 17.7917 42.5374 17.8724 42.6123C17.9615 42.678 18.036 42.7614 18.0913 42.8573C18.1465 42.9533 18.1813 43.0596 18.1934 43.1697C18.2088 43.3894 18.1365 43.6064 17.9923 43.7729V43.7729ZM17.2868 43.7341C17.3513 43.7224 17.4126 43.6971 17.4667 43.66C17.5299 43.6149 17.5869 43.5615 17.636 43.5013C17.6905 43.4381 17.7346 43.3667 17.7665 43.2896C17.7911 43.2329 17.8031 43.1715 17.8018 43.1097C17.8031 43.057 17.791 43.0048 17.7665 42.958C17.7427 42.9133 17.7104 42.8738 17.6713 42.8416C17.6328 42.8089 17.5885 42.7838 17.5408 42.7675C17.4896 42.7568 17.4367 42.7568 17.3855 42.7675C17.3233 42.7797 17.2644 42.805 17.2127 42.8416C17.1423 42.8856 17.0802 42.9418 17.0292 43.0074C16.9753 43.0697 16.9313 43.1399 16.8987 43.2155C16.8758 43.2728 16.8639 43.3338 16.8634 43.3954C16.8626 43.4481 16.8747 43.5002 16.8987 43.5471C16.9233 43.5923 16.9556 43.6329 16.994 43.6671C17.0351 43.6988 17.0817 43.7228 17.1315 43.7376C17.1826 43.7506 17.2363 43.7494 17.2868 43.7341V43.7341Z" fill="#306EE2"/>
<path d="M19.4032 45.6599L19.0505 45.4483L19.4032 44.8451L18.8917 44.5205L18.5178 45.1167L18.165 44.898L19.0117 43.5469L19.3644 43.7656L19.054 44.2595L19.5655 44.584L19.876 44.0901L20.2287 44.3088L19.4032 45.6599Z" fill="#306EE2"/>
<path d="M21.5578 46.7395L21.1663 46.5596L21.2016 46.2068L20.6689 45.9564L20.4325 46.1998L20.0586 46.0269L21.2651 44.8311L21.6919 45.0321L21.5578 46.7395ZM21.2439 45.914L21.3074 45.3143L20.8876 45.7482L21.2439 45.914Z" fill="#306EE2"/>
<path d="M23.6574 47.4627L23.2694 47.3357L23.6609 46.1116L23.2306 45.9705L23.1706 46.1257C23.1706 46.1645 23.1389 46.2139 23.1142 46.2739C23.0694 46.3881 23.0187 46.5 22.9625 46.609C22.9213 46.6806 22.8766 46.7501 22.8284 46.8172C22.7928 46.8645 22.7513 46.9072 22.705 46.9442C22.6719 46.9709 22.6365 46.9945 22.5991 47.0147C22.5512 47.0359 22.4998 47.0479 22.4474 47.05C22.3913 47.0532 22.3351 47.046 22.2816 47.0288L22.1793 46.99L22.1123 46.9618L22.2217 46.609H22.2499C22.2769 46.6204 22.3054 46.6275 22.3345 46.6302C22.3544 46.6336 22.3747 46.6336 22.3945 46.6302C22.4704 46.5909 22.5311 46.5276 22.5674 46.4503C22.6367 46.3206 22.6968 46.1862 22.7473 46.0481C22.772 45.9776 22.8002 45.9035 22.8284 45.8188C22.8566 45.7342 22.8919 45.6425 22.9272 45.5366L24.116 45.9211L23.6574 47.4627Z" fill="#306EE2"/>
<path d="M26.0142 47.4487C26.0015 47.5224 25.9726 47.5923 25.9295 47.6533C25.89 47.7079 25.8396 47.7535 25.7814 47.7874C25.7134 47.8236 25.6392 47.8463 25.5627 47.8544C25.4763 47.8587 25.3897 47.8516 25.3051 47.8332L24.5996 47.6957L24.8995 46.1294L25.3016 46.207L25.1887 46.7891L25.5133 46.8526C25.6037 46.8683 25.6924 46.8931 25.7778 46.9266C25.8413 46.9555 25.8979 46.9976 25.9436 47.0501C25.9888 47.1023 26.0193 47.1656 26.0318 47.2335C26.0384 47.3058 26.0324 47.3786 26.0142 47.4487V47.4487ZM25.5944 47.3817C25.5977 47.3559 25.5977 47.3299 25.5944 47.3041C25.5904 47.2793 25.5821 47.2554 25.5697 47.2335C25.5511 47.2084 25.527 47.1879 25.4992 47.1736C25.4584 47.1521 25.4142 47.1378 25.3686 47.1312L25.1146 47.0819L25.0476 47.4805L25.3016 47.5299C25.3426 47.535 25.3841 47.535 25.4251 47.5299C25.4559 47.5259 25.4858 47.5163 25.5133 47.5017C25.5346 47.4869 25.5536 47.469 25.5697 47.4487C25.5825 47.4284 25.5909 47.4055 25.5944 47.3817Z" fill="#306EE2"/>
<path d="M28.1834 48.154L27.7742 48.1293L27.8235 47.4238L27.2168 47.3814L27.1709 48.087L26.7617 48.0587L26.8675 46.4678L27.2768 46.496L27.238 47.0781L27.8412 47.1204L27.88 46.5383L28.2892 46.563L28.1834 48.154Z" fill="#306EE2"/>
<path d="M30.6387 47.2619C30.6519 47.3719 30.6431 47.4834 30.6129 47.59C30.5826 47.6966 30.5314 47.7961 30.4623 47.8827C30.3039 48.0368 30.0957 48.1293 29.8752 48.1435C29.6547 48.1578 29.4363 48.0928 29.2594 47.9604C29.1796 47.8834 29.1158 47.7914 29.0716 47.6897C29.0274 47.588 29.0037 47.4786 29.0019 47.3677C28.9782 47.1452 29.0428 46.9222 29.1818 46.7468C29.289 46.6164 29.4337 46.5222 29.5963 46.4769C29.759 46.4316 29.9316 46.4375 30.0908 46.4938C30.2499 46.55 30.3879 46.6539 30.4859 46.7914C30.584 46.9288 30.6373 47.0931 30.6387 47.2619ZM30.1237 47.6993C30.16 47.6457 30.1863 47.5859 30.2013 47.5229C30.2107 47.4456 30.2107 47.3674 30.2013 47.2901C30.1962 47.2071 30.1796 47.1251 30.1519 47.0467C30.1286 46.9894 30.0952 46.9368 30.0531 46.8915C30.0185 46.8514 29.9733 46.8221 29.9226 46.8068C29.8753 46.7892 29.8248 46.782 29.7744 46.7856C29.7241 46.7889 29.675 46.8021 29.6298 46.8244C29.5823 46.8469 29.5411 46.8809 29.5099 46.9232C29.4709 46.974 29.4444 47.0332 29.4323 47.0961C29.4192 47.1767 29.4192 47.2589 29.4323 47.3395C29.4356 47.4227 29.4523 47.5049 29.4816 47.5829C29.5024 47.6406 29.5349 47.6934 29.5769 47.7381C29.6136 47.7757 29.6581 47.8046 29.7074 47.8228C29.7558 47.8409 29.8076 47.8481 29.8591 47.8439C29.9105 47.8402 29.9607 47.827 30.0073 47.8051C30.0531 47.7784 30.0927 47.7424 30.1237 47.6993V47.6993Z" fill="#306EE2"/>
<path d="M32.4337 46.461L31.7282 46.5951L31.9575 47.858L31.5377 47.918L31.252 46.3517L32.3773 46.1436L32.4337 46.461Z" fill="#306EE2"/>
<path d="M34.6807 46.3199C34.7183 46.4242 34.7349 46.535 34.7295 46.6458C34.724 46.7566 34.6967 46.8652 34.649 46.9654C34.5314 47.1523 34.3506 47.2908 34.1395 47.3556C33.9284 47.4203 33.7011 47.4071 33.499 47.3182C33.3078 47.204 33.1696 47.0189 33.1144 46.8031C33.0775 46.6975 33.0625 46.5855 33.0704 46.4739C33.0783 46.3623 33.1089 46.2534 33.1603 46.1541C33.2136 46.0574 33.2862 45.9728 33.3736 45.9054C33.461 45.8381 33.5613 45.7894 33.6683 45.7625C33.7721 45.7245 33.8826 45.7081 33.9929 45.7141C34.1033 45.7202 34.2113 45.7486 34.3103 45.7978C34.4033 45.8562 34.4839 45.9324 34.5475 46.022C34.611 46.1115 34.6563 46.2128 34.6807 46.3199ZM34.2786 46.8596C34.3034 46.7992 34.3155 46.7344 34.3138 46.6691C34.312 46.5909 34.2977 46.5135 34.2715 46.4398C34.2495 46.3596 34.215 46.2834 34.1692 46.214C34.134 46.1639 34.0897 46.1208 34.0387 46.087C33.9951 46.056 33.9439 46.0377 33.8905 46.0341C33.8415 46.0254 33.7914 46.0254 33.7424 46.0341C33.6939 46.0497 33.6486 46.0736 33.6083 46.1047C33.5686 46.1396 33.5373 46.183 33.5166 46.2317C33.4907 46.2892 33.4786 46.352 33.4813 46.4151C33.4832 46.4976 33.4963 46.5795 33.5201 46.6585C33.5429 46.7373 33.5774 46.8122 33.6224 46.8807C33.6576 46.9319 33.7018 46.9761 33.7529 47.0113C33.7972 47.039 33.8471 47.0565 33.8989 47.0626C33.9508 47.0687 34.0033 47.0632 34.0528 47.0465C34.1024 47.032 34.1481 47.0067 34.1868 46.9725C34.2268 46.9435 34.2584 46.9046 34.2786 46.8596V46.8596Z" fill="#306EE2"/>
<path d="M37.8457 44.8099C37.9028 44.9041 37.9407 45.0088 37.957 45.1178C37.9734 45.2268 37.9679 45.338 37.941 45.4449C37.9076 45.5507 37.8529 45.6486 37.78 45.7324C37.7072 45.8161 37.6179 45.884 37.5177 45.9317C37.4237 45.9895 37.3187 46.0272 37.2094 46.0424C37.1001 46.0576 36.9889 46.0499 36.8827 46.0199C36.7783 45.9844 36.682 45.9283 36.5996 45.855C36.5172 45.7817 36.4503 45.6926 36.4029 45.593C36.2869 45.4016 36.2514 45.172 36.3041 44.9545C36.3833 44.7484 36.5333 44.5773 36.7273 44.4719C36.9213 44.3665 37.1465 44.3338 37.3624 44.3795C37.4676 44.4155 37.5644 44.4721 37.6474 44.546C37.7304 44.6199 37.7978 44.7096 37.8457 44.8099V44.8099ZM37.56 45.4237C37.574 45.3598 37.574 45.2936 37.56 45.2297C37.5425 45.1531 37.5139 45.0794 37.4753 45.011C37.4382 44.9377 37.3893 44.8709 37.3307 44.8134C37.2881 44.7687 37.2364 44.7338 37.179 44.7111C37.13 44.6906 37.0765 44.6833 37.0238 44.6899C36.9728 44.6946 36.9235 44.7102 36.8792 44.7358C36.8345 44.7596 36.7949 44.7919 36.7627 44.831C36.7294 44.872 36.7064 44.9204 36.6957 44.9722C36.6835 45.0339 36.6835 45.0974 36.6957 45.1591C36.7131 45.2391 36.7416 45.3163 36.7804 45.3884C36.8178 45.4615 36.8666 45.5282 36.925 45.586C36.9688 45.6308 37.0218 45.6657 37.0802 45.6883C37.1279 45.709 37.1804 45.7163 37.2319 45.7094C37.2838 45.7064 37.3344 45.692 37.3801 45.6671C37.4251 45.6408 37.4646 45.6061 37.4965 45.5648C37.5286 45.5235 37.5504 45.4751 37.56 45.4237V45.4237Z" fill="#306EE2"/>
<path d="M39.7539 43.8294C39.7969 43.8883 39.827 43.9556 39.8421 44.0269C39.858 44.093 39.858 44.1619 39.8421 44.228C39.8218 44.3033 39.7871 44.374 39.7398 44.4361C39.6836 44.5013 39.6196 44.5593 39.5493 44.609L38.9532 45.0358L38.0254 43.7412L39.0308 43.0356L39.2107 43.2861L38.5369 43.7729L38.7027 44.0022L38.9743 43.8082C39.0467 43.754 39.1247 43.7078 39.2072 43.6706C39.2715 43.6422 39.3415 43.6289 39.4118 43.6318C39.4801 43.6341 39.5462 43.6561 39.6023 43.6953C39.6603 43.7307 39.7117 43.7761 39.7539 43.8294V43.8294ZM39.4012 44.0869C39.3876 44.0658 39.3709 44.0467 39.3518 44.0304C39.3334 44.013 39.3099 44.0019 39.2848 43.9987C39.2544 43.9936 39.2234 43.9936 39.193 43.9987C39.1485 44.0157 39.1068 44.0395 39.0696 44.0692L38.8579 44.2209L39.0943 44.549L39.3059 44.3973C39.34 44.3744 39.3699 44.3458 39.3941 44.3127C39.4124 44.2867 39.4267 44.2582 39.4365 44.228C39.4417 44.2036 39.4417 44.1783 39.4365 44.1539C39.4339 44.1304 39.4267 44.1076 39.4153 44.0869H39.4012Z" fill="#306EE2"/>
<path d="M40.939 42.0089C40.9871 42.0616 41.0253 42.1225 41.0518 42.1888C41.0779 42.2513 41.0911 42.3185 41.0907 42.3863C41.0863 42.4732 41.0647 42.5583 41.0272 42.6368C40.9834 42.7256 40.9222 42.8048 40.8472 42.8696L40.6567 43.0425L41.0095 43.4234L40.7097 43.7021L39.6514 42.5274L40.1523 42.0688C40.2145 42.0097 40.2832 41.9576 40.3569 41.9136C40.4162 41.8815 40.4807 41.86 40.5474 41.8501C40.6178 41.8306 40.6922 41.8306 40.7626 41.8501C40.8329 41.8886 40.8933 41.9429 40.939 42.0089ZM40.6321 42.3016C40.6043 42.2706 40.5671 42.2496 40.5262 42.2417C40.4918 42.2308 40.4548 42.2308 40.4204 42.2417C40.3801 42.2578 40.3422 42.2791 40.3075 42.3052C40.2758 42.3299 40.237 42.3687 40.1876 42.4145L40.1347 42.4604L40.4557 42.8132L40.5403 42.732C40.584 42.6946 40.6241 42.6533 40.6603 42.6086C40.687 42.575 40.7041 42.5347 40.7097 42.4921C40.7168 42.4596 40.7168 42.4259 40.7097 42.3934C40.6889 42.3588 40.6627 42.3279 40.6321 42.3016V42.3016Z" fill="#306EE2"/>
<path d="M43.2114 41.0954L42.9327 41.4164L42.6187 41.2894L42.2342 41.7374L42.407 42.0302L42.1354 42.3477L41.3135 40.8625L41.6204 40.5098L43.2114 41.0954ZM42.333 41.173L41.7721 40.9507L42.079 41.4728L42.333 41.173Z" fill="#306EE2"/>
<path d="M43.9555 39.1796C44.0161 39.2194 44.0668 39.2725 44.1037 39.3348C44.1392 39.3984 44.1575 39.4702 44.1566 39.543C44.1559 39.6285 44.1404 39.7132 44.1108 39.7934C44.0716 39.8983 44.0194 39.9978 43.9555 40.0898C43.896 40.179 43.8287 40.2628 43.7545 40.3402C43.688 40.4072 43.616 40.4686 43.5393 40.5237L43.243 40.3226L43.2641 40.2908L43.3558 40.245C43.3948 40.2223 43.4325 40.1976 43.4687 40.1709L43.5851 40.0792C43.6224 40.043 43.6555 40.0027 43.6839 39.9592C43.7132 39.9173 43.738 39.8723 43.758 39.8252C43.7749 39.7873 43.7845 39.7466 43.7862 39.7052C43.7902 39.669 43.7841 39.6324 43.7686 39.5994C43.7541 39.5646 43.7279 39.5359 43.6945 39.5183C43.6673 39.4977 43.636 39.4833 43.6028 39.4759C43.575 39.4692 43.5459 39.4692 43.5181 39.4759C43.4864 39.4919 43.4586 39.5148 43.437 39.543C43.4054 39.5767 43.3771 39.6133 43.3523 39.6523L43.19 39.8993L42.9537 39.7405L43.1089 39.5042C43.1365 39.4661 43.1591 39.4246 43.1759 39.3807C43.1886 39.3517 43.1957 39.3206 43.1971 39.289C43.1943 39.2644 43.1871 39.2405 43.1759 39.2184C43.1592 39.1974 43.1389 39.1795 43.116 39.1655C43.0953 39.1511 43.0706 39.1434 43.0454 39.1434C43.0202 39.1434 42.9956 39.1511 42.9749 39.1655C42.9141 39.2077 42.8626 39.2617 42.8232 39.3243C42.7955 39.3679 42.7719 39.4139 42.7526 39.4618C42.7353 39.5054 42.7212 39.5502 42.7103 39.5959C42.6984 39.6338 42.6901 39.6728 42.6856 39.7123C42.6856 39.744 42.6856 39.7758 42.6856 39.8075L42.6644 39.8428L42.3857 39.6559C42.4077 39.5665 42.4372 39.4792 42.4739 39.3948C42.5144 39.2916 42.5665 39.1934 42.6291 39.102C42.7116 38.9539 42.8338 38.8317 42.9819 38.7492C43.0328 38.7228 43.0899 38.7108 43.1471 38.7145C43.2044 38.7183 43.2595 38.7376 43.3065 38.7704C43.3781 38.8186 43.4295 38.8914 43.4511 38.975C43.475 39.0627 43.4688 39.1559 43.4335 39.2396V39.2396C43.4627 39.2098 43.4946 39.1826 43.5287 39.1585C43.5661 39.1336 43.6063 39.1134 43.6486 39.0985C43.6954 39.0914 43.743 39.0914 43.7897 39.0985C43.8509 39.1114 43.9078 39.1393 43.9555 39.1796V39.1796Z" fill="#306EE2"/>
<path d="M44.7772 36.947C44.878 36.9922 44.9689 37.0569 45.0446 37.1374C45.1203 37.2179 45.1793 37.3127 45.2181 37.4162C45.251 37.519 45.2623 37.6275 45.2513 37.735C45.2404 37.8424 45.2075 37.9464 45.1546 38.0405C45.111 38.1424 45.0468 38.2341 44.9661 38.31C44.8853 38.3859 44.7898 38.4443 44.6854 38.4815C44.4707 38.5402 44.2414 38.5124 44.0469 38.4039C43.9461 38.3587 43.8552 38.294 43.7795 38.2135C43.7038 38.1329 43.6448 38.0382 43.606 37.9347C43.5722 37.8293 43.561 37.718 43.5731 37.6079C43.5853 37.4979 43.6205 37.3917 43.6765 37.2962C43.7202 37.1948 43.7844 37.1035 43.8652 37.0282C43.946 36.9529 44.0415 36.8952 44.1457 36.8588C44.2516 36.8313 44.3619 36.8249 44.4702 36.84C44.5786 36.8552 44.6829 36.8915 44.7772 36.947V36.947ZM44.8936 37.6172C44.867 37.5583 44.8285 37.5055 44.7807 37.462C44.7227 37.4094 44.6573 37.3654 44.5867 37.3315C44.514 37.292 44.4353 37.2646 44.3538 37.2504C44.2933 37.2378 44.2309 37.2378 44.1704 37.2504C44.1187 37.2629 44.0704 37.287 44.0293 37.3209C43.9909 37.3542 43.9597 37.395 43.9376 37.4408C43.9156 37.4878 43.9041 37.5389 43.9041 37.5908C43.9041 37.6426 43.9156 37.6938 43.9376 37.7407C43.964 37.7978 44.0012 37.8492 44.0469 37.8924C44.108 37.949 44.1769 37.9966 44.2515 38.0335C44.3234 38.0714 44.4008 38.0976 44.4808 38.1111C44.5413 38.1236 44.6038 38.1236 44.6643 38.1111C44.716 38.0985 44.7643 38.0744 44.8054 38.0405C44.8443 38.0077 44.8755 37.9667 44.8971 37.9206C44.9213 37.8747 44.9358 37.8242 44.9394 37.7724C44.9364 37.7178 44.9207 37.6647 44.8936 37.6172Z" fill="#306EE2"/>
<path d="M45.8112 35.0525C45.8783 35.0752 45.9388 35.1139 45.9875 35.1654C46.0346 35.2129 46.0697 35.2709 46.0898 35.3347C46.1119 35.409 46.1203 35.4867 46.1145 35.564C46.1038 35.6605 46.0813 35.7553 46.0475 35.8462L45.8182 36.5024L44.3154 35.9697L44.5236 35.3876C44.5523 35.2981 44.5877 35.2109 44.6294 35.1266C44.6574 35.0715 44.6943 35.0214 44.7387 34.9784C44.7826 34.9333 44.8392 34.9025 44.901 34.8902C44.9626 34.8798 45.026 34.8859 45.0845 34.9079C45.1521 34.9309 45.2112 34.974 45.2538 35.0314C45.2965 35.0929 45.322 35.1648 45.3279 35.2395V35.2395C45.3725 35.1546 45.4447 35.0875 45.5325 35.049C45.5767 35.0306 45.6243 35.0215 45.6722 35.0221C45.7201 35.0227 45.7674 35.033 45.8112 35.0525V35.0525ZM45.0174 35.3312C44.9909 35.3238 44.9628 35.3238 44.9363 35.3312C44.9054 35.3358 44.8776 35.3523 44.8587 35.3771C44.8348 35.4062 44.8168 35.4398 44.8058 35.4758C44.7881 35.5182 44.767 35.5781 44.7387 35.6522V35.6875L45.0562 35.8004L45.0774 35.7404C45.0986 35.6816 45.1162 35.6287 45.1303 35.5817C45.1364 35.5466 45.1364 35.5109 45.1303 35.4758C45.1303 35.442 45.1177 35.4093 45.095 35.3841C45.0732 35.3612 45.0468 35.3431 45.0174 35.3312ZM45.663 35.4547C45.6238 35.4435 45.5823 35.4435 45.5431 35.4547C45.5055 35.4693 45.4735 35.4951 45.4513 35.5287C45.4264 35.5661 45.4063 35.6064 45.3914 35.6487C45.3914 35.7016 45.3526 35.758 45.3349 35.8145L45.3032 35.8992L45.6771 36.0332V36.005C45.7159 35.8956 45.7406 35.818 45.7582 35.7686C45.7673 35.7232 45.7673 35.6765 45.7582 35.6311C45.7597 35.5927 45.7471 35.5551 45.723 35.5252C45.7084 35.4976 45.6879 35.4735 45.663 35.4547V35.4547Z" fill="#306EE2"/>
<path d="M46.8201 32.9502L46.7284 33.3629L46.3757 33.4017L46.2487 33.9803L46.5379 34.1567L46.4462 34.5623L45.0352 33.6416L45.1375 33.1795L46.8201 32.9502ZM46.0829 33.4546L45.4832 33.5217L45.9982 33.8356L46.0829 33.4546Z" fill="#306EE2"/>
<path d="M47.0631 30.7522L47.0243 31.1614L46.3187 31.0979L46.2729 31.6906L46.9784 31.7541L46.9184 32.1774L45.3486 32.0433L45.3874 31.6341L45.966 31.687L46.0224 31.0838L45.4439 31.0274L45.4792 30.6182L47.0631 30.7522Z" fill="#306EE2"/>
<path d="M47.0318 28.3359V28.7346L45.9735 28.7769L47.0565 29.3978V29.7893L45.4691 29.8528V29.4507L46.4286 29.4119L45.4444 28.8369L45.4268 28.3994L47.0318 28.3359Z" fill="#306EE2"/>
<path d="M46.7001 26.0464L46.7706 26.4485L46.1956 26.5473L46.2344 26.7696L46.8765 27.0659L46.9576 27.5456L46.2274 27.1929C46.2059 27.2879 46.1597 27.3756 46.0933 27.4469C46.0168 27.5192 45.9191 27.5649 45.8146 27.5774C45.7433 27.599 45.6672 27.599 45.5959 27.5774C45.5315 27.555 45.4735 27.5175 45.4266 27.468C45.3821 27.4212 45.3474 27.3661 45.3243 27.3058C45.2935 27.2311 45.2721 27.1529 45.2608 27.0729L45.1338 26.3392L46.7001 26.0464ZM45.9134 26.5967L45.4901 26.6673L45.5254 26.8683C45.5324 26.9161 45.5431 26.9633 45.5571 27.0094C45.5664 27.044 45.5861 27.0748 45.6136 27.0976C45.6354 27.1189 45.662 27.1346 45.6912 27.1435C45.7237 27.1506 45.7574 27.1506 45.7899 27.1435C45.8229 27.1392 45.8543 27.1271 45.8817 27.1082C45.9061 27.0903 45.9266 27.0675 45.9416 27.0412C45.9593 27.0102 45.9667 26.9744 45.9628 26.9389C45.9653 26.8907 45.9653 26.8424 45.9628 26.7943L45.9134 26.5967Z" fill="#306EE2"/>
<path d="M28.3954 26.1382C27.3795 24.3955 21.3895 24.7694 19.7879 24.9035C19.6807 24.915 19.5817 24.9663 19.5105 25.0473C19.4392 25.1283 19.401 25.2331 19.4034 25.3409V33.4545C19.4032 33.5141 19.4154 33.5731 19.4392 33.6278C19.463 33.6824 19.4979 33.7316 19.5417 33.772C19.5855 33.8125 19.6372 33.8434 19.6935 33.8628C19.7499 33.8823 19.8097 33.8898 19.8691 33.8849C21.5694 33.7473 27.4041 33.4087 28.406 35.1266C28.4209 35.1523 28.4423 35.1735 28.4679 35.1883C28.4936 35.2031 28.5228 35.2109 28.5524 35.2109C28.582 35.2109 28.6112 35.2031 28.6368 35.1883C28.6625 35.1735 28.6839 35.1523 28.6988 35.1266C29.7006 33.4087 35.5354 33.7473 37.2357 33.8849C37.2943 33.8883 37.3529 33.8796 37.408 33.8595C37.4631 33.8394 37.5135 33.8082 37.5561 33.7679C37.5987 33.7276 37.6327 33.679 37.6558 33.6251C37.679 33.5712 37.6909 33.5132 37.6908 33.4545V25.3409C37.6911 25.2326 37.6507 25.1282 37.5774 25.0484C37.5042 24.9687 37.4036 24.9194 37.2957 24.9105C35.6941 24.7765 29.7042 24.4026 28.6882 26.1452C28.6727 26.1705 28.6508 26.1913 28.6248 26.2054C28.5987 26.2196 28.5694 26.2267 28.5398 26.226C28.5101 26.2253 28.4812 26.2168 28.4559 26.2014C28.4305 26.186 28.4097 26.1642 28.3954 26.1382V26.1382Z" fill="#E9E8E8"/>
<path d="M37.2812 34.5477C35.3199 34.3996 29.6862 34.135 28.6914 35.8424C28.6756 35.8679 28.6535 35.889 28.6273 35.9036C28.601 35.9182 28.5715 35.9258 28.5415 35.9258C28.5115 35.9258 28.4819 35.9182 28.4557 35.9036C28.4294 35.889 28.4074 35.8679 28.3916 35.8424C27.3968 34.135 21.7631 34.3996 19.8017 34.5477C19.7158 34.554 19.6295 34.5426 19.5481 34.5141C19.4668 34.4856 19.3923 34.4406 19.329 34.3821C19.2658 34.3235 19.2154 34.2525 19.1808 34.1736C19.1462 34.0947 19.1282 34.0095 19.1279 33.9233V34.9287C19.1275 35.0187 19.146 35.1077 19.1821 35.19C19.2183 35.2724 19.2713 35.3462 19.3378 35.4067C19.4044 35.4672 19.4829 35.5131 19.5682 35.5414C19.6536 35.5696 19.744 35.5796 19.8335 35.5708C21.809 35.4226 27.4144 35.1615 28.4057 36.8654C28.4215 36.8909 28.4436 36.912 28.4698 36.9266C28.496 36.9412 28.5256 36.9489 28.5556 36.9489C28.5856 36.9489 28.6152 36.9412 28.6414 36.9266C28.6676 36.912 28.6897 36.8909 28.7055 36.8654C29.6968 35.1615 35.3022 35.4226 37.2777 35.5708C37.3672 35.5796 37.4576 35.5696 37.543 35.5414C37.6283 35.5131 37.7068 35.4672 37.7733 35.4067C37.8399 35.3462 37.8929 35.2724 37.9291 35.19C37.9652 35.1077 37.9837 35.0187 37.9832 34.9287V33.9233C37.9834 34.0121 37.9647 34.0999 37.9284 34.1809C37.8921 34.262 37.839 34.3344 37.7726 34.3934C37.7063 34.4524 37.6282 34.4967 37.5435 34.5233C37.4588 34.5499 37.3694 34.5582 37.2812 34.5477V34.5477Z" fill="white"/>
<path d="M29.9085 34.0929C29.449 34.1775 28.9962 34.2954 28.5538 34.4456C28.1114 34.2954 27.6587 34.1775 27.1992 34.0929C27.3084 33.8166 27.4936 33.5769 27.7333 33.4015C27.973 33.2261 28.2575 33.1221 28.5538 33.1016C29.023 33.0734 29.5239 33.345 29.9085 34.0929Z" fill="white"/>
<path d="M28.5537 26.7518C28.9523 25.0339 34.3003 22.8926 36.4804 23.0372V29.708C36.4804 29.708 30.2399 30.4876 28.5537 32.4349V26.7518Z" fill="white"/>
<path d="M28.5536 26.7518C28.1585 25.0339 22.807 22.8926 20.627 23.0372V29.708C20.627 29.708 26.8709 30.4876 28.5536 32.4349V26.7518Z" fill="white"/>
</svg>
