<svg xmlns="http://www.w3.org/2000/svg" width="1200" height="273" viewBox="0 0 1200 273" fill="none"><g clip-path="url(#clip0_10_63)"><rect width="272.605" height="272.604" rx="136.302" fill="#FEC005"></rect><rect x="-12.6055" y="58.6299" width="110.686" height="36.1645" rx="3.28769" fill="#FFEEBA"></rect><rect x="101.918" y="129.863" width="92.6035" height="36.1645" rx="3.28769" fill="#FFEEBA"></rect><path fill-rule="evenodd" clip-rule="evenodd" d="M187.223 64.1094C187.223 61.0831 184.77 58.6299 181.744 58.6299H97.1883C87.0504 58.6299 78.832 66.8483 78.832 76.9861V94.7601V347.672H114.962V94.7601H181.744C184.77 94.7601 187.223 92.3069 187.223 89.2806V64.1094Z" fill="#FFFAEB"></path><path fill-rule="evenodd" clip-rule="evenodd" d="M282.432 129.806H192.397C182.259 129.806 174.041 138.025 174.041 148.162V165.936V346.588H210.171V165.936H282.432V129.806Z" fill="#FFFAEB"></path></g><path d="M387.197 32.338H414.422V19.9844H347.57V32.338H374.843V88.1193H387.197V32.338Z" fill="#4F5258"></path><path d="M457.897 32.338H485.123V19.9844H418.271V32.338H445.544V88.1193H457.897V32.338Z" fill="#4F5258"></path><path d="M565.658 88.1193H548.126L520.33 60.2761H511.635V47.8275H520.33L548.126 19.9844H565.658L530.641 54.0518L565.658 88.1193Z" fill="#4F5258"></path><path d="M506.694 88.1193H494.34V19.9844H506.694V88.1193Z" fill="#4F5258"></path><path fill-rule="evenodd" clip-rule="evenodd" d="M967.427 246.607C966.869 245.39 966.59 244.071 966.59 242.65V141.966H986.377V218.83L1058.67 143.412C1060.1 141.941 1061.79 141.027 1063.77 140.672C1065.75 140.266 1067.68 140.444 1069.56 141.205C1071.33 142.017 1072.8 143.26 1073.97 144.934C1075.09 146.557 1075.65 148.384 1075.65 150.413V251.097H1055.86V174.234L983.561 249.728C982.597 250.742 981.506 251.478 980.289 251.935C979.02 252.391 977.777 252.619 976.56 252.619C975.19 252.619 973.896 252.366 972.678 251.858C971.461 251.351 970.421 250.666 969.558 249.804C968.645 248.89 967.935 247.825 967.427 246.607ZM454.647 162.34H411.04V251.685H391.253V162.34H347.57V142.554H454.647V162.34ZM575.879 200.316C576.995 196.764 577.553 192.731 577.553 188.215V179.235C577.553 176.8 577.274 174.213 576.716 171.473C576.158 168.682 575.245 165.943 573.977 163.254C572.759 160.514 571.186 157.901 569.258 155.415C567.381 152.929 565.072 150.747 562.333 148.87C559.644 146.942 556.524 145.42 552.972 144.304C549.421 143.137 545.413 142.554 540.948 142.554H496.199C493.46 142.554 490.466 143.061 487.219 144.076C483.972 145.04 480.953 146.613 478.163 148.794C475.423 150.976 473.115 153.842 471.238 157.394C469.411 160.945 468.498 165.258 468.498 170.331V251.685H488.285V170.331C488.285 167.744 488.97 165.765 490.339 164.395C491.709 163.025 493.713 162.34 496.352 162.34H540.948C543.535 162.34 545.818 162.772 547.797 163.634C549.776 164.446 551.45 165.588 552.82 167.059C554.241 168.53 555.357 170.306 556.168 172.386C556.98 174.466 557.513 176.749 557.767 179.235V188.215C557.767 190.752 557.361 193.035 556.549 195.065C555.737 197.043 554.596 198.743 553.124 200.164C551.653 201.584 549.877 202.726 547.797 203.588C545.768 204.4 543.485 204.907 540.948 205.11H496.199V224.897H540.948C543.383 224.897 545.971 224.618 548.71 224.06C551.501 223.502 554.241 222.614 556.93 221.396C559.669 220.179 562.282 218.606 564.768 216.678C567.254 214.75 569.436 212.442 571.313 209.753C573.241 207.013 574.763 203.867 575.879 200.316ZM701.601 251.685H681.814V224.897H612.256V251.685H592.47V197.119C592.47 189.154 593.839 181.823 596.579 175.126C599.319 168.429 603.124 162.67 607.995 157.85C612.865 153.031 618.624 149.276 625.27 146.587C631.916 143.898 639.171 142.554 647.035 142.554H691.632C693.001 142.554 694.295 142.807 695.513 143.315C696.731 143.822 697.796 144.532 698.709 145.446C699.622 146.359 700.333 147.424 700.84 148.642C701.348 149.86 701.601 151.153 701.601 152.523V251.685ZM612.256 205.11H681.814V162.34H647.035C646.426 162.34 645.133 162.442 643.154 162.645C641.226 162.797 638.968 163.228 636.381 163.939C633.844 164.649 631.155 165.74 628.314 167.211C625.473 168.682 622.86 170.712 620.475 173.299C618.091 175.887 616.112 179.134 614.539 183.04C613.017 186.896 612.256 191.589 612.256 197.119V205.11ZM814.081 187.15H744.599V142.554H724.813V251.685H744.599V207.089H814.081V251.685H833.868V142.554H814.081V187.15ZM947.033 223.908C947.033 229.032 946.094 233.37 944.217 236.921C942.391 240.422 940.082 243.289 937.292 245.521C934.552 247.702 931.559 249.275 928.312 250.239C925.065 251.203 922.046 251.685 919.255 251.685H855.786V231.898H919.255C921.944 231.898 923.923 231.214 925.192 229.844C926.511 228.474 927.17 226.495 927.17 223.908V207.089H879.775V187.15H927.17V170.483C927.17 165.055 924.532 162.34 919.255 162.34H855.786V142.554H919.255C922.655 142.554 925.699 142.985 928.388 143.847C931.077 144.71 933.436 145.877 935.465 147.348C937.545 148.769 939.321 150.418 940.793 152.295C942.264 154.172 943.456 156.151 944.369 158.231C945.283 160.26 945.942 162.34 946.348 164.471C946.805 166.552 947.033 168.505 947.033 170.331V174.419C947.033 180.439 944.958 186.274 941.158 190.942L939.492 192.989C937.533 195.394 937.533 198.845 939.492 201.25L941.158 203.297C944.958 207.965 947.033 213.8 947.033 219.82V223.908ZM1156.39 162.34H1200V142.554H1092.92V162.34H1136.61V251.685H1156.39V162.34Z" fill="#1B1C1F"></path><defs><clipPath id="clip0_10_63"><rect width="272.605" height="272.604" rx="136.302" fill="white"></rect></clipPath></defs></svg>