<svg width="1020" height="1412" viewBox="0 0 1020 1412" fill="none" xmlns="http://www.w3.org/2000/svg">
<g clip-path="url(#clip0_786_1021)">
<path d="M1027.99 1310.76C1013.66 1344.51 1029.25 1383.2 1062.79 1397.2C1096.34 1411.19 1135.15 1395.17 1149.48 1361.42C1198.86 1245.08 1268.56 1135.48 1340.26 1022.74C1344.54 1016.02 1348.82 1009.28 1353.1 1002.53C1377.73 963.765 1404.95 923.656 1432.93 882.456L1432.94 882.441C1492.77 794.307 1556 701.182 1604.37 605.492L1604.54 605.207C1605.27 603.969 1606.42 602.028 1607.68 599.814C1610.07 595.648 1613.99 588.618 1617.24 581.045C1618.83 577.347 1621.09 571.639 1622.73 564.916C1623.81 560.463 1627.56 544.755 1622.13 526.403C1618.93 515.579 1612.12 502.608 1599.13 492.395C1586.24 482.267 1572.27 478.778 1561.5 478.078C1543.03 476.876 1528.6 483.39 1523.56 485.752C1450.39 520.049 1381.4 574.351 1321.9 621.169C1303.2 635.886 1285.44 649.864 1268.78 662.25C1036.82 834.724 794.926 991.907 549.21 1147C635.414 1010.8 727.521 878.637 824.183 747.298C861.29 696.878 898.252 645.281 933.117 591.528C934.704 589.08 936.663 586.177 938.883 582.889C950.257 566.038 968.458 539.072 978.503 511.32C979.863 507.563 982.129 500.595 982.912 491.854C983.583 484.373 984.181 464.791 970.431 445.833C954.35 423.662 931.019 418.529 916.863 418.429C904.389 418.342 894.779 421.721 890.744 423.268C877.264 428.434 865.07 437.999 860.669 441.452L860.201 441.818C853.451 447.1 846.287 453.193 840.693 457.969L839.214 459.232L839.21 459.236C833.694 463.946 830.251 466.886 828.058 468.612C802.049 489.077 776.91 509.353 752.17 529.306C688.303 580.818 627.093 630.186 560.452 675.131C487.421 724.388 413.021 768.924 335.419 805.123C346.411 769.823 358.077 735.472 371.421 701.926C406.09 614.76 452.452 535.134 502.333 449.462C507.896 439.907 513.505 430.274 519.143 420.55C521.478 416.524 525.877 408.841 528.879 400.393C530.099 396.962 533.931 385.958 533.105 371.851C532.642 363.929 530.568 352.473 523.43 340.775C515.838 328.334 504.905 319.56 493.16 314.49C473.295 305.915 455.591 309.71 451.47 310.593L451.448 310.599C444.941 311.992 439.696 314.05 437.025 315.152C431.505 317.426 425.833 320.36 422.241 322.225C389.497 339.225 355.066 360.14 323.238 379.475C305.605 390.186 288.769 400.414 273.462 409.22C229.119 434.734 187.369 458.212 144.739 476.724C152.273 433.158 162.453 389.718 174.267 345.747C199.597 251.468 213.084 163.606 211.938 64.6835C211.515 28.1602 181.602 -0.792304 145.125 0.0165431C108.649 0.825587 79.422 31.0894 79.8449 67.613C80.8257 152.31 69.486 227.924 46.7262 312.633C33.0381 363.579 20.9171 415.694 12.2875 469.206C11.9783 471.123 11.1713 474.699 9.28462 483.059L9.27828 483.086L9.11963 483.791C7.41421 491.347 5.19763 501.313 3.42805 511.659C1.70598 521.727 0.00714424 534.359 2.48772e-05 547.217C-0.00593999 558.272 1.05215 578.998 12.4729 598.723C27.0429 623.886 50.9205 631.108 62.3656 633.206C74.3763 635.41 85.1548 634.528 91.6864 633.703C105.339 631.978 119.132 627.886 129.155 624.564C149.016 617.985 172.25 607.937 171.646 608.175C216.06 590.738 258.082 568.963 297.522 546.972C279.959 581.609 263.428 617.232 248.766 654.092C225.793 711.851 207.805 770.363 191.278 827.27C190.416 830.235 189.184 833.894 187.275 839.422L186.751 840.936C185.092 845.729 183.012 851.741 181.101 857.847C177.175 870.391 171.532 890.496 172.061 912.17C172.364 924.542 176.128 941.627 189.437 956.517C202.434 971.057 218.205 976.399 228.743 978.25C246.164 981.309 260.962 976.957 264.916 975.794L265.126 975.731C271.25 973.936 276.728 971.696 279.618 970.498C280.286 970.22 281.056 969.897 281.752 969.604C282.527 969.278 283.21 968.989 283.554 968.844C284.134 968.601 284.435 968.477 284.548 968.431L284.595 968.412C290.305 966.252 295.437 964.337 300.291 962.527L300.298 962.526C318.012 955.92 332.034 950.692 357.031 939.853C455.431 897.183 546.916 842.981 633.447 784.619C634.33 784.024 635.213 783.426 636.095 782.829C526.356 937.033 422.493 1094.6 327.038 1260.18C324.672 1264.28 316.644 1279.61 310.254 1292.21C306.911 1298.8 303.394 1305.88 300.79 1311.47C299.664 1313.88 297.921 1317.69 296.501 1321.46L296.468 1321.55C296.129 1322.43 293.689 1328.73 292.536 1336.51C292.173 1338.96 291.553 1343.95 291.914 1350.22C292.188 1354.99 293.397 1369.82 304.053 1384.73C318.303 1404.64 341.039 1413.4 362.147 1411.82C378.064 1410.64 389.105 1404.02 392.697 1401.77C407.844 1392.27 422.831 1382.6 437.413 1373.19L437.447 1373.18L437.926 1372.87C452.788 1363.27 467.238 1353.96 481.733 1344.87C774.086 1161.62 1067.12 976.133 1346.81 768.174C1348.19 767.144 1349.57 766.113 1350.94 765.083C1352.68 763.786 1354.4 762.49 1356.13 761.196C1347.67 773.712 1339.13 786.269 1330.53 798.904L1330.48 798.987C1301.21 842.024 1271.32 885.98 1241.85 932.37C1237.12 939.822 1232.36 947.31 1227.57 954.834C1157.23 1065.37 1081.88 1183.79 1027.99 1310.76Z" fill="url(#paint0_linear_786_1021)"/>
</g>
<defs>
<linearGradient id="paint0_linear_786_1021" x1="812.501" y1="-7.68329e-09" x2="812.501" y2="1412" gradientUnits="userSpaceOnUse">
<stop stop-color="#5917AF"/>
<stop offset="1" stop-color="#5917AF" stop-opacity="0"/>
</linearGradient>
<clipPath id="clip0_786_1021">
<rect width="1020" height="1412" fill="white"/>
</clipPath>
</defs>
</svg>
