<svg width="1245" height="1227" viewBox="0 0 1245 1227" fill="none" xmlns="http://www.w3.org/2000/svg">
<g clip-path="url(#clip0_59_239)">
<path d="M1247.09 932.07C1233.66 963.714 1248.27 999.995 1279.74 1013.13C1311.2 1026.24 1347.6 1011.22 1361.03 979.572C1407.35 870.479 1472.71 767.716 1539.95 662.002C1543.97 655.696 1547.98 649.381 1552 643.053C1575.1 606.699 1600.63 569.09 1626.86 530.458L1626.88 530.444C1682.99 447.803 1742.28 360.482 1787.65 270.755L1787.81 270.489C1788.49 269.327 1789.57 267.508 1790.76 265.431C1793 261.525 1796.67 254.933 1799.72 247.832C1801.21 244.365 1803.33 239.012 1804.87 232.708C1805.89 228.533 1809.4 213.804 1804.31 196.595C1801.31 186.446 1794.92 174.283 1782.74 164.707C1770.65 155.21 1757.55 151.939 1747.45 151.282C1730.13 150.155 1716.59 156.263 1711.87 158.478C1643.24 190.637 1578.54 241.555 1522.74 285.455C1505.2 299.256 1488.54 312.362 1472.92 323.976C1255.38 485.701 1028.52 633.088 798.075 778.519C878.92 650.805 965.303 526.878 1055.96 403.723C1090.76 356.446 1125.42 308.065 1158.12 257.662C1159.61 255.367 1161.45 252.644 1163.53 249.562C1174.19 233.76 1191.26 208.475 1200.69 182.452C1201.96 178.929 1204.09 172.396 1204.82 164.2C1205.45 157.185 1206.01 138.824 1193.11 121.046C1178.03 100.258 1156.15 95.445 1142.88 95.3507C1131.18 95.2688 1122.16 98.438 1118.38 99.8881C1105.74 104.733 1094.3 113.701 1090.18 116.939L1089.74 117.282C1083.41 122.235 1076.69 127.948 1071.44 132.426L1070.05 133.611L1070.05 133.615C1064.88 138.031 1061.65 140.788 1059.59 142.407C1035.2 161.596 1011.62 180.608 988.42 199.318C928.522 247.62 871.117 293.911 808.618 336.055C740.126 382.242 670.35 424.002 597.571 457.945C607.881 424.845 618.822 392.635 631.336 361.179C663.85 279.446 707.33 204.783 754.111 124.449C759.328 115.49 764.588 106.458 769.876 97.3392C772.066 93.5642 776.192 86.3605 779.007 78.4385C780.152 75.2215 783.746 64.9036 782.971 51.6758C782.536 44.247 780.591 33.5056 773.896 22.5367C766.777 10.8704 756.523 2.64371 745.508 -2.11023C726.878 -10.1509 710.274 -6.5925 706.409 -5.7641L706.389 -5.75919C700.286 -4.45233 695.367 -2.52261 692.862 -1.48984C687.686 0.643005 682.366 3.3938 678.997 5.14243C648.288 21.0831 615.998 40.6947 586.148 58.8244C569.61 68.8683 553.821 78.4581 539.466 86.7154C497.878 110.639 458.723 132.654 418.743 150.013C425.808 109.162 435.356 68.429 446.435 27.1989C470.192 -61.2046 482.84 -143.591 481.765 -236.348C481.369 -270.595 453.315 -297.743 419.105 -296.985C384.896 -296.226 357.486 -267.849 357.882 -233.601C358.802 -154.183 348.167 -83.2818 326.822 -3.8515C313.985 43.919 302.617 92.7859 294.524 142.963C294.234 144.761 293.477 148.114 291.708 155.953L291.702 155.978L291.553 156.639C289.953 163.724 287.875 173.069 286.215 182.77C284.6 192.211 283.007 204.056 283 216.113C282.994 226.478 283.987 245.913 294.698 264.408C308.362 288.003 330.756 294.775 341.489 296.742C352.754 298.809 362.862 297.982 368.988 297.208C381.792 295.591 394.728 291.753 404.128 288.639C422.754 282.469 444.544 273.048 443.977 273.271C485.631 256.921 525.041 236.503 562.03 215.883C545.558 248.361 530.055 281.763 516.305 316.327C494.759 370.486 477.889 425.352 462.389 478.712C461.581 481.492 460.426 484.923 458.635 490.107L458.144 491.526C456.588 496.02 454.637 501.658 452.845 507.383C449.163 519.145 443.871 537.997 444.367 558.321C444.651 569.921 448.181 585.941 460.663 599.903C472.852 613.537 487.642 618.547 497.526 620.282C513.864 623.15 527.743 619.069 531.45 617.979L531.647 617.92C537.391 616.237 542.528 614.137 545.239 613.014C545.865 612.753 546.588 612.449 547.24 612.175C547.967 611.869 548.607 611.598 548.93 611.462C549.474 611.234 549.757 611.118 549.862 611.075L549.906 611.057C555.261 609.032 560.075 607.237 564.627 605.539L564.633 605.538C581.247 599.344 594.397 594.442 617.84 584.278C710.125 544.267 795.923 493.443 877.076 438.719C877.904 438.161 878.732 437.6 879.559 437.04C776.641 581.634 679.233 729.381 589.711 884.638C587.492 888.485 579.964 902.856 573.971 914.676C570.836 920.859 567.537 927.493 565.095 932.731C564.038 934.995 562.404 938.568 561.072 942.104L561.042 942.19C560.723 943.009 558.436 948.92 557.353 956.213C557.013 958.513 556.432 963.188 556.771 969.073C557.028 973.54 558.161 987.453 568.155 1001.43C581.52 1020.1 602.842 1028.31 622.638 1026.83C637.566 1025.73 647.921 1019.51 651.29 1017.41C665.495 1008.5 679.55 999.432 693.226 990.61L693.258 990.598L693.707 990.304C707.646 981.31 721.198 972.573 734.791 964.057C1008.97 792.225 1283.79 618.297 1546.1 423.298C1547.4 422.333 1548.69 421.366 1549.98 420.401C1551.61 419.184 1553.22 417.969 1554.84 416.755C1546.91 428.491 1538.9 440.266 1530.83 452.113L1530.78 452.191C1503.34 492.547 1475.3 533.763 1447.67 577.262C1443.23 584.249 1438.76 591.27 1434.27 598.326C1368.31 701.971 1297.64 813.014 1247.09 932.07Z" fill="url(#paint0_linear_59_239)"/>
</g>
<path d="M1147.5 283L1144.47 277.75L1150.53 277.75L1147.5 283Z" fill="white"/>
<defs>
<linearGradient id="paint0_linear_59_239" x1="1045" y1="-297" x2="1045" y2="1027" gradientUnits="userSpaceOnUse">
<stop stop-color="#FF9D43"/>
<stop offset="1" stop-color="#FF9D43" stop-opacity="0"/>
</linearGradient>
<clipPath id="clip0_59_239">
<rect width="1245" height="1082" fill="white" transform="translate(0 -0.000488281)"/>
</clipPath>
</defs>
</svg>
