<svg width="422" height="498" viewBox="0 0 422 498" fill="none" xmlns="http://www.w3.org/2000/svg">
<g opacity="0.3">
<path d="M128.56 457.274C100.696 451.879 67.4717 440.199 37.4061 415.79C29.236 409.163 10.5716 390.893 13.3454 364.472C15.5588 343.335 30.6086 325.478 58.0777 311.413C60.8076 310.005 62.4537 305.684 66.3025 292.524C69.7072 280.911 73.9076 266.533 82.811 250.261C91.7143 233.989 100.896 217.323 118.739 202.435C160.569 167.576 213.88 172.261 229.224 174.538C269.646 180.471 302.362 199.178 323.73 228.495C360.97 279.603 351.757 345.032 326.239 387.241C288.787 448.836 220.986 457.173 192.053 460.735C190.098 460.978 163.46 464.031 128.56 457.274ZM66.1792 369.831C67.3864 371.723 68.8975 373.402 70.6516 374.802C120.545 415.279 185.071 408.403 185.722 408.327C208.749 405.558 256.926 399.579 281.079 359.793C297.075 333.462 303.908 290.858 281.091 259.541C268.256 241.922 247.672 230.579 221.509 226.699C214.484 225.657 178.173 221.56 152.544 242.919C142.335 251.451 136.781 261.549 129.072 275.609C122.948 286.782 119.903 297.207 116.951 307.303C111.586 325.604 105.516 346.356 82.1284 358.378C71.3498 363.879 67.4324 368.136 66.1792 369.831Z" fill="url(#paint0_linear_679_1290)"/>
<path d="M418.674 79.8862L416.145 84.0652C415.104 85.4103 413.861 86.9041 412.502 88.6213C407.329 94.6789 401.727 100.357 395.741 105.612C394.163 107.041 392.535 108.359 390.806 109.672C372.5 124.273 351.357 134.907 328.721 140.899C317.825 143.92 306.701 146.044 295.46 147.251C285.154 148.485 274.765 148.89 264.394 148.464C259.344 148.266 253.968 147.89 248.309 147.257C260.281 133.189 273.667 120.387 288.256 109.056C295.032 103.659 302.09 98.6282 309.401 93.9834C314.826 90.4517 320.284 87.2732 325.576 84.4242C312.551 85.2557 285.939 88.9204 260.723 107.7C259.612 108.511 258.582 109.352 257.552 110.194C249.908 116.327 243.081 123.414 237.237 131.281C239.087 124.412 251.761 80.3804 294.761 60.3032C307.997 54.1753 322.423 51.0456 337.008 51.1377C363.509 51.1808 385.202 60.9024 392.813 64.3707C394.961 65.2926 397.021 66.2986 398.984 67.2856C405.93 70.8561 412.522 75.075 418.674 79.8862Z" fill="url(#paint1_linear_679_1290)"/>
</g>
<defs>
<linearGradient id="paint0_linear_679_1290" x1="28.213" y1="286.638" x2="343.482" y2="347.679" gradientUnits="userSpaceOnUse">
<stop stop-color="#F6D777"/>
<stop offset="0.1" stop-color="#F4CC76"/>
<stop offset="0.71" stop-color="#EA9371"/>
<stop offset="1" stop-color="#E67C6F"/>
</linearGradient>
<linearGradient id="paint1_linear_679_1290" x1="245.41" y1="89.0665" x2="410.7" y2="121.069" gradientUnits="userSpaceOnUse">
<stop stop-color="#C3ED67"/>
<stop offset="0.1" stop-color="#B2E171"/>
<stop offset="0.39" stop-color="#85C28E"/>
<stop offset="0.64" stop-color="#63ABA2"/>
<stop offset="0.86" stop-color="#4F9DAE"/>
<stop offset="1" stop-color="#4898B3"/>
</linearGradient>
</defs>
</svg>
