<svg width="71" height="39" viewBox="0 0 71 39" fill="none" xmlns="http://www.w3.org/2000/svg">
<path d="M38.7564 38.8366C38.7564 38.8366 40.0139 38.6994 40.6581 38.0207C41.2477 37.3988 41.2273 36.2252 41.2273 36.2252C41.2273 36.2252 41.1489 30.7449 43.7423 29.9359C46.2984 29.1401 49.5802 35.2355 53.0634 37.5792C55.6944 39.3513 57.6914 38.9636 57.6914 38.9636L66.9989 38.8366C66.9989 38.8366 71.8656 38.5422 69.5583 34.7875C69.3675 34.4798 68.2123 32.0088 62.6401 26.9333C56.8019 21.6206 57.5858 22.4797 64.6132 13.2885C68.8939 7.69124 70.6046 4.27411 70.0694 2.81297C69.5618 1.41549 66.4126 1.78656 66.4126 1.78656L55.9363 1.85022C55.9363 1.85022 55.1592 1.74657 54.5833 2.08418C54.021 2.41525 53.6562 3.18758 53.6562 3.18758C53.6562 3.18758 52 7.5174 49.7882 11.2019C45.1226 18.9723 43.2584 19.3836 42.4949 18.9021C40.7194 17.7753 41.1625 14.3818 41.1625 11.971C41.1625 4.43815 42.328 1.29851 38.896 0.485923C37.7577 0.215241 36.9194 0.0378712 34.0056 0.00794657C30.2668 -0.0290512 27.1043 0.0212758 25.3116 0.880386C24.1186 1.45222 23.1986 2.72946 23.761 2.80291C24.4526 2.89323 26.0204 3.2175 26.8519 4.32771C27.9254 5.76219 27.8879 8.97855 27.8879 8.97855C27.8879 8.97855 28.5049 17.8458 26.4464 18.9456C25.0354 19.7014 23.0995 18.16 18.9383 11.1084C16.8085 7.49727 15.1998 3.50505 15.1998 3.50505C15.1998 3.50505 14.8895 2.75966 14.3343 2.35839C13.6628 1.87361 12.7256 1.72318 12.7256 1.72318L2.77062 1.78656C2.77062 1.78656 1.27441 1.82682 0.725674 2.4653C0.238457 3.03034 0.688383 4.20393 0.688383 4.20393C0.688383 4.20393 8.4825 22.0953 17.3093 31.1127C25.4036 39.3782 34.5916 38.8366 34.5916 38.8366H38.7564Z" fill="#FF9D43"/>
</svg>
