<?xml version="1.0" encoding="utf-8"?>
<!-- Generator: Adobe Illustrator 26.3.1, SVG Export Plug-In . SVG Version: 6.00 Build 0)  -->
<svg version="1.1" id="Слой_1" xmlns="http://www.w3.org/2000/svg" xmlns:xlink="http://www.w3.org/1999/xlink" x="0px" y="0px"
	 viewBox="0 0 512 512" style="enable-background:new 0 0 512 512;" xml:space="preserve">
<style type="text/css">
	.st0{fill:#181819;}
	.st1{fill:url(#SVGID_1_);}
	.st2{fill:url(#SVGID_00000002362957464505578450000007965896795579524791_);}
</style>
<path class="st0" d="M442.5,512h-373C31.1,512,0,480.9,0,442.5v-373C0,31.1,31.1,0,69.5,0h373.1c38.4,0,69.5,31.1,69.5,69.5v373.1
	C512,480.9,480.9,512,442.5,512z"/>
<g>
	
		<linearGradient id="SVGID_1_" gradientUnits="userSpaceOnUse" x1="95.4901" y1="198.0507" x2="383.398" y2="198.0507" gradientTransform="matrix(1 0 0 -1 0 512)">
		<stop  offset="0" style="stop-color:#FAD466"/>
		<stop  offset="0.1379" style="stop-color:#F9C567"/>
		<stop  offset="0.7203" style="stop-color:#F58C69"/>
		<stop  offset="1" style="stop-color:#F4756A"/>
	</linearGradient>
	<path class="st1" d="M212.9,447.1c-25.4,0-56.7-4.6-87.3-21c-8.3-4.4-27.9-17.3-30-41.1c-1.7-18.9,8.5-37.2,30.3-54.4l0,0
		c2.2-1.7,2.8-5.8,4-18c1.1-10.8,2.3-24.2,7.4-40.1c5-15.8,10.3-32.1,23.4-48.3c30.9-37.8,78.5-42.8,92.5-43.4
		c36.6-1.7,68.5,9.3,92.4,31.4c41.5,38.7,44.6,97.8,29.2,139.3c-22.5,60.6-80.6,79.5-105.6,87.6
		C267.8,439.9,244.9,447.1,212.9,447.1z M143.2,380.8c0.8,0.9,2.6,2.5,4.8,3.7c50.8,27.1,106.4,10.1,107,9.9
		c19.8-6.4,61.2-19.9,75.7-59c9.6-25.9,8.3-64.6-17-88.2c-14.3-13.4-34.4-19.8-58-18.7c-6.3,0.3-39,2.8-57.9,26.1
		c-7.6,9.3-10.7,19.1-15.1,32.8c-3.5,10.8-4.4,20.6-5.3,30c-1.6,17-3.4,36.3-22,50.9l0,0C146.7,374.7,143.9,379.1,143.2,380.8z"/>
	
		<linearGradient id="SVGID_00000036942742927749418580000006302015916809279883_" gradientUnits="userSpaceOnUse" x1="253.0537" y1="408.6888" x2="403.9202" y2="408.6888" gradientTransform="matrix(1 0 0 -1 0 512)">
		<stop  offset="0" style="stop-color:#B6ED4C"/>
		<stop  offset="0.2362" style="stop-color:#83D16E"/>
		<stop  offset="0.4802" style="stop-color:#56B98C"/>
		<stop  offset="0.6978" style="stop-color:#34A7A2"/>
		<stop  offset="0.8785" style="stop-color:#209CAF"/>
		<stop  offset="1" style="stop-color:#1998B4"/>
	</linearGradient>
	<path style="fill:url(#SVGID_00000036942742927749418580000006302015916809279883_);" d="M403.9,65.6l-1.5,4.1
		c-0.7,1.4-1.5,2.8-2.4,4.6c-2.7,4.8-6.7,11.1-11.9,17.9c-1.2,1.5-2.3,2.9-3.7,4.4c-15.7,18.6-33.9,30.5-49.3,38.1
		c-11.9,6-22.2,9.4-28.2,11.2c-6.7,2.2-15.9,4.6-27.1,6.4c-4.5,0.7-9.3,1.3-14.4,1.7c7.3-12.8,16.6-26.7,28.6-40.5
		c4.8-5.6,10.2-11.4,16.1-16.8c4.2-4,8.4-7.8,12.6-11.1c-11.4,2.9-34.2,10.7-53.1,31.5c-0.8,0.9-1.6,1.8-2.3,2.7
		c-6.6,7.8-11.1,15.5-14.3,22.1c0.4-6.4,4.1-47.3,38.5-72.2c11.7-8.4,24-12.9,35.6-15.2c23.3-4.5,44.1,0.4,51.4,2.1
		c2.1,0.4,4,0.9,5.9,1.5C392.7,60.2,399.2,63.1,403.9,65.6z"/>
</g>
</svg>
