<?xml version="1.0" encoding="utf-8"?>
<!-- Generator: Adobe Illustrator 26.3.1, SVG Export Plug-In . SVG Version: 6.00 Build 0)  -->
<svg version="1.1" id="Слой_1" xmlns="http://www.w3.org/2000/svg" xmlns:xlink="http://www.w3.org/1999/xlink" x="0px" y="0px"
	 viewBox="0 0 180 180" style="enable-background:new 0 0 180 180;" xml:space="preserve">
<style type="text/css">
	.st0{fill:#181819;}
	.st1{fill:url(#SVGID_1_);}
	.st2{fill:url(#SVGID_00000057860221348212720420000015561460452083436981_);}
</style>
<path class="st0" d="M152.9,180H27.1C12.2,180,0,167.8,0,152.8V27.2C0,12.2,12.2,0,27.1,0h125.7c14.9,0,27.2,12.2,27.2,27.2v125.7
	C179.9,167.9,167.8,180,152.9,180z"/>
<g>
	<linearGradient id="SVGID_1_" gradientUnits="userSpaceOnUse" x1="33.579" y1="110.4432" x2="134.7548" y2="110.4432">
		<stop  offset="0" style="stop-color:#FAD466"/>
		<stop  offset="0.1379" style="stop-color:#F9C567"/>
		<stop  offset="0.7203" style="stop-color:#F58C69"/>
		<stop  offset="1" style="stop-color:#F4756A"/>
	</linearGradient>
	<path class="st1" d="M74.9,157.2c-9,0-20-1.7-30.7-7.4c-3-1.6-9.7-6.1-10.6-14.5c-0.5-6.7,3-13.1,10.7-19.1l0,0
		c0.7-0.5,1-2.1,1.5-6.3c0.3-3.8,0.7-8.6,2.5-14.1s3.6-11.3,8.2-16.9c11-13.3,27.8-15,32.7-15.2c12.8-0.5,24.1,3.3,32.4,11.1
		c14.6,13.6,15.6,34.3,10.4,48.9c-7.9,21.2-28.3,28-37.1,30.7C94.1,154.7,86.1,157.2,74.9,157.2z M50.4,134c0.3,0.3,0.8,0.8,1.7,1.3
		c17.9,9.5,37.4,3.5,37.6,3.5c6.9-2.3,21.6-7,26.5-20.7c3.4-9.1,3-22.7-6-31.1c-5.1-4.8-12-6.9-20.4-6.6c-2.2,0.1-13.7,1-20.4,9.1
		c-2.6,3.3-3.7,6.7-5.3,11.5c-1.2,3.8-1.6,7.3-1.9,10.6c-0.5,6-1.2,12.7-7.7,17.9l0,0C51.6,131.7,50.6,133.3,50.4,134z"/>
	
		<linearGradient id="SVGID_00000124121061115394035020000011370428864089113758_" gradientUnits="userSpaceOnUse" x1="88.9622" y1="36.1535" x2="142.0052" y2="36.1535">
		<stop  offset="0" style="stop-color:#B6ED4C"/>
		<stop  offset="0.2362" style="stop-color:#83D16E"/>
		<stop  offset="0.4802" style="stop-color:#56B98C"/>
		<stop  offset="0.6978" style="stop-color:#34A7A2"/>
		<stop  offset="0.8785" style="stop-color:#209CAF"/>
		<stop  offset="1" style="stop-color:#1998B4"/>
	</linearGradient>
	<path style="fill:url(#SVGID_00000124121061115394035020000011370428864089113758_);" d="M142,23.1l-0.5,1.5
		c-0.2,0.4-0.5,1-0.8,1.7c-1,1.8-2.3,3.9-4.1,6.2c-0.4,0.5-0.8,1-1.3,1.6c-5.5,6.6-11.9,10.8-17.3,13.4c-4.1,2.1-7.8,3.3-9.8,3.9
		c-2.4,0.7-5.6,1.7-9.5,2.2c-1.6,0.2-3.3,0.4-5.1,0.5c2.5-4.5,5.8-9.4,10.1-14.3c1.7-2,3.6-3.9,5.6-5.9c1.5-1.5,3-2.7,4.4-3.9
		c-3.9,1-11.9,3.7-18.7,11.1c-0.3,0.3-0.5,0.6-0.8,1c-2.3,2.7-3.9,5.5-5.1,7.8c0.1-2.2,1.5-16.6,13.5-25.4c4-3,8.5-4.5,12.5-5.4
		c8.2-1.6,15.4,0.1,18.1,0.7c0.7,0.1,1.5,0.3,2.1,0.5C138.1,21.2,140.4,22.3,142,23.1z"/>
</g>
</svg>
