<?xml version="1.0" encoding="utf-8"?>
<!-- Generator: Adobe Illustrator 26.3.1, SVG Export Plug-In . SVG Version: 6.00 Build 0)  -->
<svg version="1.1" id="Слой_1" xmlns="http://www.w3.org/2000/svg" xmlns:xlink="http://www.w3.org/1999/xlink" x="0px" y="0px"
	 viewBox="0 0 32 32" style="enable-background:new 0 0 32 32;" xml:space="preserve">
<style type="text/css">
	.st0{fill:#181819;}
	.st1{fill:url(#SVGID_1_);}
	.st2{fill:url(#SVGID_00000136369081141021238390000004152062602889298833_);}
</style>
<path class="st0" d="M27.6,32H4.3C2,32,0,30,0,27.6V4.3C0,2,2,0,4.3,0h23.3C30,0,32,2,32,4.3v23.3C32,30,30,32,27.6,32z"/>
<g>
	
		<linearGradient id="SVGID_1_" gradientUnits="userSpaceOnUse" x1="5.99" y1="14.3547" x2="23.9815" y2="14.3547" gradientTransform="matrix(1 0 0 -1 0 34)">
		<stop  offset="0" style="stop-color:#FAD466"/>
		<stop  offset="0.1379" style="stop-color:#F9C567"/>
		<stop  offset="0.7203" style="stop-color:#F58C69"/>
		<stop  offset="1" style="stop-color:#F4756A"/>
	</linearGradient>
	<path class="st1" d="M13.3,28c-1.6,0-3.6-0.3-5.4-1.3c-0.5-0.3-1.8-1.1-1.8-2.5c-0.1-1.2,0.6-2.4,1.9-3.4l0,0
		c0.1-0.1,0.2-0.4,0.2-1.1c0.1-0.6,0.1-1.5,0.4-2.5s0.6-2,1.4-3c1.9-2.4,4.9-2.6,5.8-2.7c2.3-0.1,4.3,0.6,5.8,1.9
		c2.6,2.4,2.8,6.1,1.8,8.7c-1.4,3.8-5.1,5-6.6,5.5C16.8,27.5,15.3,28,13.3,28z M8.9,23.8c0.1,0,0.1,0.1,0.3,0.2
		c3.1,1.7,6.6,0.6,6.7,0.6c1.3-0.4,3.8-1.2,4.8-3.7c0.6-1.6,0.5-4.1-1-5.5c-0.9-0.9-2.1-1.2-3.6-1.1c-0.4,0-2.4,0.2-3.6,1.6
		c-0.4,0.6-0.6,1.2-0.9,2c-0.2,0.7-0.2,1.3-0.4,1.9c-0.1,1-0.2,2.2-1.4,3.2l0,0C9.1,23.4,9,23.7,8.9,23.8z"/>
	
		<linearGradient id="SVGID_00000054966656398077286600000005063207823198995593_" gradientUnits="userSpaceOnUse" x1="15.8152" y1="27.5392" x2="25.2474" y2="27.5392" gradientTransform="matrix(1 0 0 -1 0 34)">
		<stop  offset="0" style="stop-color:#B6ED4C"/>
		<stop  offset="0.2362" style="stop-color:#83D16E"/>
		<stop  offset="0.4802" style="stop-color:#56B98C"/>
		<stop  offset="0.6978" style="stop-color:#34A7A2"/>
		<stop  offset="0.8785" style="stop-color:#209CAF"/>
		<stop  offset="1" style="stop-color:#1998B4"/>
	</linearGradient>
	<path style="fill:url(#SVGID_00000054966656398077286600000005063207823198995593_);" d="M25.2,4.1l-0.1,0.2c0,0.1-0.1,0.2-0.1,0.3
		c-0.1,0.3-0.4,0.7-0.8,1.1c0,0.1-0.1,0.2-0.2,0.3c-1,1.2-2.1,1.9-3.1,2.4c-0.8,0.4-1.4,0.6-1.8,0.7c-0.4,0.1-1,0.3-1.7,0.4
		c-0.3,0.1-0.6,0.1-0.9,0.1c0.5-0.8,1-1.6,1.8-2.6c0.3-0.3,0.6-0.7,1-1.1c0.2-0.2,0.5-0.5,0.8-0.7C19.4,5.6,18,6,16.8,7.3
		c0,0.1-0.1,0.1-0.1,0.2c-0.4,0.5-0.7,1-0.9,1.4c0.1-0.4,0.2-2.9,2.4-4.5c0.8-0.5,1.5-0.8,2.2-1c1.5-0.3,2.8,0,3.2,0.2
		c0.1,0,0.2,0,0.4,0.1C24.5,3.8,25,4,25.2,4.1z"/>
</g>
</svg>
