<?xml version="1.0" encoding="utf-8"?>
<!-- Generator: Adobe Illustrator 26.3.1, SVG Export Plug-In . SVG Version: 6.00 Build 0)  -->
<svg version="1.1" id="Слой_1" xmlns="http://www.w3.org/2000/svg" xmlns:xlink="http://www.w3.org/1999/xlink" x="0px" y="0px"
	 viewBox="0 0 64 64" style="enable-background:new 0 0 64 64;" xml:space="preserve">
<style type="text/css">
	.st0{fill:#181819;}
	.st1{fill:url(#SVGID_1_);}
	.st2{fill:url(#SVGID_00000135658410694528823780000016035479798491676829_);}
</style>
<path class="st0" d="M55.3,64H8.7C3.9,64,0,60.1,0,55.3V8.7C0,3.9,3.9,0,8.7,0h46.6C60.1,0,64,3.9,64,8.7v46.6
	C64,60.1,60.1,64,55.3,64z"/>
<g>
	<linearGradient id="SVGID_1_" gradientUnits="userSpaceOnUse" x1="11.9441" y1="39.2557" x2="47.9271" y2="39.2557">
		<stop  offset="0" style="stop-color:#FAD466"/>
		<stop  offset="0.1379" style="stop-color:#F9C567"/>
		<stop  offset="0.7203" style="stop-color:#F58C69"/>
		<stop  offset="1" style="stop-color:#F4756A"/>
	</linearGradient>
	<path class="st1" d="M26.6,55.9c-3.2,0-7.1-0.6-10.9-2.6c-1-0.6-3.5-2.2-3.7-5.1c-0.2-2.4,1.1-4.7,3.8-6.8l0,0
		c0.3-0.2,0.4-0.7,0.5-2.3c0.1-1.3,0.3-3,0.9-5c0.6-2,1.3-4,2.9-6c3.9-4.7,9.8-5.3,11.6-5.4c4.6-0.2,8.6,1.2,11.5,3.9
		c5.2,4.8,5.6,12.2,3.6,17.4c-2.8,7.6-10.1,9.9-13.2,10.9C33.5,55,30.6,55.9,26.6,55.9z M17.9,47.6c0.1,0.1,0.3,0.3,0.6,0.5
		c6.3,3.4,13.3,1.3,13.4,1.2c2.5-0.8,7.6-2.5,9.5-7.4c1.2-3.2,1-8.1-2.1-11c-1.8-1.7-4.3-2.5-7.3-2.3c-0.8,0-4.9,0.4-7.2,3.3
		c-0.9,1.2-1.3,2.4-1.9,4.1c-0.4,1.4-0.5,2.6-0.7,3.7c-0.2,2.1-0.4,4.5-2.7,6.4l0,0C18.3,46.8,18,47.4,17.9,47.6z"/>
	
		<linearGradient id="SVGID_00000152248736877747833740000014725281408827549836_" gradientUnits="userSpaceOnUse" x1="31.6303" y1="12.8957" x2="50.4949" y2="12.8957">
		<stop  offset="0" style="stop-color:#B6ED4C"/>
		<stop  offset="0.2362" style="stop-color:#83D16E"/>
		<stop  offset="0.4802" style="stop-color:#56B98C"/>
		<stop  offset="0.6978" style="stop-color:#34A7A2"/>
		<stop  offset="0.8785" style="stop-color:#209CAF"/>
		<stop  offset="1" style="stop-color:#1998B4"/>
	</linearGradient>
	<path style="fill:url(#SVGID_00000152248736877747833740000014725281408827549836_);" d="M50.5,8.2l-0.2,0.5
		c-0.1,0.2-0.2,0.4-0.3,0.6c-0.3,0.6-0.8,1.4-1.5,2.2c-0.1,0.2-0.3,0.4-0.5,0.6c-2,2.3-4.2,3.8-6.2,4.8c-1.5,0.8-2.8,1.2-3.5,1.4
		c-0.8,0.3-2,0.6-3.4,0.8c-0.6,0.1-1.2,0.2-1.8,0.2c0.9-1.6,2.1-3.3,3.6-5.1c0.6-0.7,1.3-1.4,2-2.1c0.5-0.5,1.1-1,1.6-1.4
		c-1.4,0.4-4.3,1.3-6.6,3.9c-0.1,0.1-0.2,0.2-0.3,0.3c-0.8,1-1.4,1.9-1.8,2.8c0.1-0.8,0.5-5.9,4.8-9c1.5-1.1,3-1.6,4.5-1.9
		c2.9-0.6,5.5,0,6.4,0.3c0.3,0.1,0.5,0.1,0.7,0.2C49.1,7.5,49.9,7.9,50.5,8.2z"/>
</g>
</svg>
