<?xml version="1.0" encoding="utf-8"?>
<!-- Generator: Adobe Illustrator 26.3.1, SVG Export Plug-In . SVG Version: 6.00 Build 0)  -->
<svg version="1.1" id="Слой_1" xmlns="http://www.w3.org/2000/svg" xmlns:xlink="http://www.w3.org/1999/xlink" x="0px" y="0px"
	 viewBox="0 0 192 192" style="enable-background:new 0 0 192 192;" xml:space="preserve">
<style type="text/css">
	.st0{fill:#181819;}
	.st1{fill:url(#SVGID_1_);}
	.st2{fill:url(#SVGID_00000087400537597254897190000009160136148934541489_);}
</style>
<path class="st0" d="M165.9,192H26.1C11.7,192,0,180.3,0,165.9V26.1C0,11.7,11.7,0,26.1,0h139.9C180.3,0,192,11.7,192,26.1v139.9
	C192,180.3,180.3,192,165.9,192z"/>
<g>
	
		<linearGradient id="SVGID_1_" gradientUnits="userSpaceOnUse" x1="35.9058" y1="74.2471" x2="143.7646" y2="74.2471" gradientTransform="matrix(1 0 0 -1 0 192)">
		<stop  offset="0" style="stop-color:#FAD466"/>
		<stop  offset="0.1379" style="stop-color:#F9C567"/>
		<stop  offset="0.7203" style="stop-color:#F58C69"/>
		<stop  offset="1" style="stop-color:#F4756A"/>
	</linearGradient>
	<path class="st1" d="M79.9,167.6c-9.6,0-21.2-1.7-32.7-7.9C44,158,36.7,153.2,36,144.3c-0.6-7.1,3.2-13.9,11.4-20.4l0,0
		c0.8-0.6,1.1-2.2,1.5-6.8c0.4-4,0.8-9.1,2.7-15s3.9-12,8.8-18c11.6-14.1,29.4-16,34.7-16.2c13.7-0.6,25.7,3.5,34.6,11.8
		c15.5,14.5,16.7,36.7,11,52.2c-8.4,22.7-30.3,29.9-39.6,32.8C100.4,165,91.8,167.6,79.9,167.6z M53.7,142.8
		c0.3,0.4,0.9,0.9,1.8,1.4c19.1,10.1,39.9,3.8,40.1,3.7c7.4-2.4,22.9-7.5,28.4-22.2c3.6-9.7,3.2-24.3-6.4-33.1
		c-5.4-5-12.9-7.4-21.7-7.1c-2.4,0.1-14.7,1.1-21.7,9.8c-2.8,3.5-4,7.2-5.7,12.2c-1.3,4.1-1.7,7.7-2,11.2
		c-0.6,6.3-1.3,13.6-8.2,19.1l0,0C55,140.5,54,142.2,53.7,142.8z"/>
	
		<linearGradient id="SVGID_00000134933320576762513850000008994656027017660565_" gradientUnits="userSpaceOnUse" x1="94.8908" y1="153.3706" x2="151.4847" y2="153.3706" gradientTransform="matrix(1 0 0 -1 0 192)">
		<stop  offset="0" style="stop-color:#B6ED4C"/>
		<stop  offset="0.2362" style="stop-color:#83D16E"/>
		<stop  offset="0.4802" style="stop-color:#56B98C"/>
		<stop  offset="0.6978" style="stop-color:#34A7A2"/>
		<stop  offset="0.8785" style="stop-color:#209CAF"/>
		<stop  offset="1" style="stop-color:#1998B4"/>
	</linearGradient>
	<path style="fill:url(#SVGID_00000134933320576762513850000008994656027017660565_);" d="M151.5,24.6l-0.5,1.6
		c-0.2,0.5-0.5,1.1-0.9,1.7c-1.1,1.8-2.5,4.2-4.4,6.6c-0.4,0.5-0.8,1.2-1.4,1.7c-5.9,7-12.7,11.4-18.5,14.2
		c-4.4,2.2-8.3,3.5-10.5,4.2c-2.5,0.8-5.9,1.7-10.1,2.4c-1.7,0.2-3.5,0.5-5.4,0.6c2.7-4.9,6.2-10,10.8-15.2c1.8-2.1,3.8-4.2,6-6.3
		c1.6-1.5,3.2-3,4.7-4.2c-4.2,1.2-12.8,4-19.9,11.8c-0.3,0.3-0.6,0.6-0.8,1.1c-2.4,3-4.2,5.8-5.4,8.2c0.2-2.4,1.6-17.7,14.5-27.1
		c4.3-3.2,9-4.9,13.4-5.7c8.8-1.7,16.6,0.1,19.3,0.8c0.7,0.2,1.5,0.4,2.2,0.5C147.3,22.6,149.7,23.6,151.5,24.6z"/>
</g>
</svg>
